<svg xmlns="http://www.w3.org/2000/svg" viewBox="0 0 419.94 467.5"><title>hand</title><g id="Слой_2" data-name="Слой 2"><g id="Capa_1" data-name="Capa 1"><path d="M414.82,235.4a13.31,13.31,0,0,0-6.3-9c-76-45.3-120.6-54.7-153.2-61.5-4.2-.9-8.3-1.7-12.2-2.6L229,46.4a47.24,47.24,0,0,0-94.4-1.6c0,.5-.1.9-.1,1.4v68.2l-1.1,166.5-18-13.9c-3.5-3-27.9-22.7-58.1-22.7-20.4,0-38.5,8.6-53.8,25.4a13.42,13.42,0,0,0-1,16.9c1.3,1.8,32.3,45.2,80.9,89.4,28.8,26.1,57.8,47,86.2,62.1,36.2,19.2,71.6,29.1,105.3,29.4h1.6c46,0,81.8-15.2,106.4-45.1C437.72,355.8,415.72,240.3,414.82,235.4ZM362,405.4c-19.2,23.4-48,35.2-85.5,35.2h-1.4c-66.9-.5-131.1-46-173.1-84.1a616.89,616.89,0,0,1-70.4-76,41.07,41.07,0,0,1,25.8-9.1c21.7,0,40.5,16.1,40.6,16.3s.5.4.7.6l39.9,30.7a13.57,13.57,0,0,0,21.8-10.6l1.3-193.8V46.7a20.2,20.2,0,0,1,40.4.6,8.6,8.6,0,0,0,.1,1.6l15.1,125.9a13.49,13.49,0,0,0,9.9,11.4c7.2,1.9,14.6,3.5,22.5,5.1,31.6,6.6,70.8,14.9,139.6,55.1C392.72,269.6,402.42,356.3,362,405.4Z"/></g></g></svg>