<svg xmlns="http://www.w3.org/2000/svg" width="23" height="23" viewBox="0 0 23 23"><defs><clipPath id="ix01a"><path fill="#fff" d="M11.5 0C17.85 0 23 5.148 23 11.5 23 17.85 17.851 23 11.5 23S0 17.85 0 11.5C0 5.148 5.149 0 11.5 0z"/></clipPath></defs><g><g><path fill="#fff" d="M11 7.75a3.25 3.25 0 1 1 0 6.5 3.25 3.25 0 0 1 0-6.5z"/></g><g><path fill="none" stroke="#ffdfaf" stroke-miterlimit="50" stroke-width="4" d="M11.5 0C17.85 0 23 5.148 23 11.5 23 17.85 17.851 23 11.5 23S0 17.85 0 11.5C0 5.148 5.149 0 11.5 0z" clip-path="url(&quot;#ix01a&quot;)"/></g></g></svg>