<svg xmlns="http://www.w3.org/2000/svg" viewBox="0 0 126.23 30.04"><defs><style>.cls-1{isolation:isolate;}.cls-2{fill:#141414;}</style></defs><title>logo</title><g id="Слой_2" data-name="Слой 2"><g id="Слой_1-2" data-name="Слой 1"><g class="cls-1"><g class="cls-1"><path class="cls-2" d="M.28,16H4.53l.74,3.32a9.83,9.83,0,0,0,5.37,1.42,2.66,2.66,0,0,0,1.14-2.07C11.78,13.58,0,16.4,0,8.12,0,4.65,3.13.56,9.89.56a17.66,17.66,0,0,1,7.19,1.73V9H12.87L11.69,5.08a10.21,10.21,0,0,0-4.06-.77A2.88,2.88,0,0,0,6.45,6.64c0,4.09,11.63,2.32,11.63,10,0,4.68-4.41,7.57-9.93,7.57A15,15,0,0,1,.31,22Z"/><path class="cls-2" d="M27.28,11.47v7.66c0,1,.47,1.71,1.58,1.71a3.42,3.42,0,0,0,1-.16l.5,2.64a7.06,7.06,0,0,1-3.84,1c-3.6,0-5.37-2.05-5.37-5.3V11.47H19V7.88h2.14V4.77l6.14-1.39v4.5h2.88v3.59Z"/><path class="cls-2" d="M40.12,17.42c0,1.93.8,2.36,2.07,2.36a4.79,4.79,0,0,0,2.05-.46v-5c0-.75-.06-2.45-.13-2.86l-2.82-.4V7.91l8.93-.47c.07,1.77.16,5,.16,6.92V18.2c0,.62,0,1.89.09,2.39l2.45.28v2.69L45,24.25c-.15-.69-.31-1.74-.4-2.61a6.63,6.63,0,0,1-5.36,2.61C36,24.25,34,21.7,34,18.32v-4c0-.75-.07-2.45-.13-2.86L31,11.1V7.91L40,7.44c.06,1.77.16,5,.16,6.92Z"/><path class="cls-2" d="M71,18.2c0,.62,0,1.89.1,2.39l2.41.28v2.69l-7.9.62a21.67,21.67,0,0,1-.37-2.32,6.35,6.35,0,0,1-4.9,2.39c-4.09,0-6.48-3.48-6.48-8,0-5.4,3-8.87,7.62-8.87A8.34,8.34,0,0,1,64.88,8V6.91c0-.71-.06-2.41-.12-2.82l-2.82-.43V.46L70.87,0c.06,1.77.15,5,.15,6.91Zm-6.14-4.37a2.78,2.78,0,0,0-3.07-2.73,2.37,2.37,0,0,0-.46,0c-1,1-1.46,2.57-1.46,4.81,0,3.1,1.24,4.37,3.26,4.37a3.18,3.18,0,0,0,1.73-.56V13.83Z"/><path class="cls-2" d="M79.45,18.14a.8.8,0,0,0-.06.37c0,.4.28.56.75.59l5.17.19c4.34.15,6.11,1.92,6.11,4.58,0,3.23-3.6,6.17-9.61,6.17-5,0-7.26-1.92-7.26-3.93A3.15,3.15,0,0,1,75.7,23.5a3,3,0,0,1-1.43-2.7c0-1.24,1-2.57,2.89-3.65a5.21,5.21,0,0,1-2.42-4.44c0-3.44,3.16-5.3,7.78-5.3a7.9,7.9,0,0,1,3.57.78C87.24,6.2,88.48,5,90.27,5a4.27,4.27,0,0,1,1.55.25L91.45,9.8a8.76,8.76,0,0,0-1.83-.16,11.51,11.51,0,0,0-1.52.1,5.09,5.09,0,0,1,1.18,3.31c0,3.45-3.16,5.31-7.75,5.31A9,9,0,0,1,79.45,18.14Zm-1.24,6a1.73,1.73,0,0,0-.09.56c0,.81,1,1.83,4.15,1.83a21.62,21.62,0,0,0,4.07-.43,2.62,2.62,0,0,0,.15-.69c0-.4-.09-.92-1.58-1Zm4.87-9a3.48,3.48,0,0,0,.56-1.86A2.35,2.35,0,0,0,81,10.6a3.47,3.47,0,0,0-.62,1.9C80.35,14.08,80.91,15.13,83.08,15.13Z"/><path class="cls-2" d="M108.35,20.12a8.32,8.32,0,0,1-7.41,4.16c-5.8,0-8.59-3.85-8.59-8.5a8.45,8.45,0,0,1,8.8-8.37c4.28,0,7,3.19,7,7.63a8.89,8.89,0,0,1-1.4,1.83H98.89c.71,2.6,2.48,3.31,3.69,3.31a5.34,5.34,0,0,0,3.94-1.95ZM98.61,14c3.26,0,4.34-.09,4.34-.21,0-1.92-1-3.29-3-3.29h-.15A6,6,0,0,0,98.61,14Z"/><path class="cls-2" d="M112.4,14.36c0-.75-.06-2.45-.12-2.86l-2.82-.4V7.91l8.77-.47c.1,1,.16,2.42.22,3.81,1.21-2.17,2.88-3.9,5.33-3.9a4.29,4.29,0,0,1,2.45.59v6.51h-4l-.68-1.89c-1.49,0-2.29.83-3,2.35V20.8a9.67,9.67,0,0,0,2.64.84v2.3H109.77v-2.3a9.19,9.19,0,0,0,2.63-.84Z"/></g></g></g></g></svg>