<svg xmlns="http://www.w3.org/2000/svg" viewBox="0 0 135.68 27.69"><title>logo-text</title><g id="Слой_2" data-name="Слой 2"><g id="Группа_8" data-name="Группа 8"><g id="evgeny_Simonov_production" data-name="evgeny Simonovproduction"><path d="M8.68.18,8.4,1.53H3.29L2.77,4H7.51l-.26,1.3H2.5L1.91,8.09H7.1L6.8,9.44H0L2,.18Z"/><path d="M18.62.18,13.53,9.44H11.69L10.48.18h1.65l.56,4.67c.12,1.06.19,2.08.22,3.07.41-.94.81-1.79,1.22-2.56L16.89.18Z"/><path d="M28.22,4.5l-1,4.94h-1v-1a3.55,3.55,0,0,1-2.82,1.19,3.69,3.69,0,0,1-2.8-1.08,4.11,4.11,0,0,1-1-2.92,6,6,0,0,1,1.38-4A4.68,4.68,0,0,1,24.69,0a4.24,4.24,0,0,1,2.63.79,2.75,2.75,0,0,1,1.05,2.34H26.79a1.77,1.77,0,0,0-.61-1.34,2.4,2.4,0,0,0-1.55-.45A3,3,0,0,0,22.68,2,3.81,3.81,0,0,0,21.5,3.63a5.91,5.91,0,0,0-.36,2.06,2.83,2.83,0,0,0,.64,2,2.32,2.32,0,0,0,1.81.7c1.51,0,2.49-.87,2.93-2.62H24l.27-1.25Z"/><path d="M39,.18l-.28,1.35H33.58L33.06,4H37.8l-.26,1.3H32.79L32.2,8.09h5.19l-.3,1.35h-6.8l2-9.26Z"/><path d="M49.44.18l-2,9.26H45.79L43.48,3.91a15.59,15.59,0,0,1-.63-1.76c-.05.46-.19,1.29-.43,2.46l-1,4.83H39.83l2-9.26H43.5l2.27,5.51c.29.71.51,1.31.67,1.82.06-.59.23-1.54.5-2.87L47.88.18Z"/><path d="M59.84.18,55.31,5.85l-.76,3.59H53l.78-3.69L51.38.18h1.7L54.2,3.06c.17.43.34.89.5,1.39q.39-.6.87-1.23l2.34-3Z"/><path d="M73.42,2.91H71.86V2.82q0-1.56-1.83-1.56a2.38,2.38,0,0,0-1.41.37,1.16,1.16,0,0,0-.53,1,1.13,1.13,0,0,0,.13.54,1.06,1.06,0,0,0,.43.37,3.27,3.27,0,0,0,.55.25l.74.21c.37.09.67.18.89.25a5.72,5.72,0,0,1,.79.31,2.25,2.25,0,0,1,.69.48,2.33,2.33,0,0,1,.42.68,2.47,2.47,0,0,1,.19,1A2.49,2.49,0,0,1,71.8,8.89a4.73,4.73,0,0,1-2.67.74,4.07,4.07,0,0,1-2.69-.78,2.8,2.8,0,0,1-.93-2.27,1.27,1.27,0,0,1,0-.2H67.1v.16c0,1.21.71,1.82,2.12,1.82a2.54,2.54,0,0,0,1.54-.42,1.33,1.33,0,0,0,.58-1.13,1.18,1.18,0,0,0-.13-.58.92.92,0,0,0-.43-.39,3,3,0,0,0-.48-.22l-.61-.19-1-.27a7,7,0,0,1-.83-.33,2.63,2.63,0,0,1-.74-.48,2.11,2.11,0,0,1-.44-.66,2.34,2.34,0,0,1-.19-.93,2.4,2.4,0,0,1,1-2A4,4,0,0,1,70,0a4,4,0,0,1,2.52.71,2.47,2.47,0,0,1,.87,2Z"/><path d="M78.84.18l-2,9.26H75.26l2-9.26Z"/><path d="M91.84.18l-2,9.26H88.33l.89-4c.31-1.44.63-2.74,1-3.9-.52,1-1,2-1.47,2.78l-3,5.16H84.45L83.61,4a22.45,22.45,0,0,1-.27-2.53c-.09.81-.33,2.15-.71,4l-.81,3.93H80.26l2-9.26h2.23l.73,5.07a18.49,18.49,0,0,1,.22,2.5,23.87,23.87,0,0,1,1.15-2.38l3-5.19Z"/><path d="M102.74,4a6.82,6.82,0,0,1-.59,2.85,5,5,0,0,1-1.77,2.08,4.77,4.77,0,0,1-2.73.8,3.86,3.86,0,0,1-2.91-1.1,4.16,4.16,0,0,1-1-3,5.83,5.83,0,0,1,1.4-4A4.69,4.69,0,0,1,98.81,0a3.87,3.87,0,0,1,2.87,1.07A4,4,0,0,1,102.74,4Zm-4-2.61a2.92,2.92,0,0,0-1.9.65,3.83,3.83,0,0,0-1.15,1.59,5.6,5.6,0,0,0-.36,2,2.94,2.94,0,0,0,.65,2,2.29,2.29,0,0,0,1.8.74,2.74,2.74,0,0,0,1.86-.7A3.94,3.94,0,0,0,100.75,6a6,6,0,0,0,.35-2,2.88,2.88,0,0,0-.6-1.93A2.24,2.24,0,0,0,98.71,1.35Z"/><path d="M114.1.18l-2,9.26h-1.69l-2.3-5.53a14.24,14.24,0,0,1-.64-1.76c0,.46-.19,1.29-.43,2.46l-1,4.83h-1.58l2-9.26h1.69l2.27,5.51c.29.71.51,1.31.67,1.82.06-.59.23-1.54.5-2.87l.94-4.46Z"/><path d="M124.85,4a6.82,6.82,0,0,1-.59,2.85,5,5,0,0,1-1.77,2.08,4.73,4.73,0,0,1-2.72.8,3.88,3.88,0,0,1-2.92-1.1,4.16,4.16,0,0,1-1-3,5.83,5.83,0,0,1,1.4-4A4.69,4.69,0,0,1,120.92,0a3.87,3.87,0,0,1,2.87,1.07A3.93,3.93,0,0,1,124.85,4Zm-4-2.61a2.92,2.92,0,0,0-1.9.65,3.83,3.83,0,0,0-1.15,1.59,5.6,5.6,0,0,0-.36,2,2.94,2.94,0,0,0,.65,2,2.3,2.3,0,0,0,1.8.74,2.72,2.72,0,0,0,1.86-.7A3.94,3.94,0,0,0,122.86,6a5.75,5.75,0,0,0,.35-2,2.88,2.88,0,0,0-.6-1.93A2.23,2.23,0,0,0,120.82,1.35Z"/><path d="M135.68.18,130.6,9.44h-1.85L127.54.18h1.65l.56,4.67c.12,1.06.2,2.08.22,3.07.41-.94.82-1.79,1.22-2.56L134,.18Z"/><path d="M2,18.18h3.4a6.08,6.08,0,0,1,1.44.13,2.21,2.21,0,0,1,.91.44,2.42,2.42,0,0,1,.85,1.95,3.29,3.29,0,0,1-.67,2,2.57,2.57,0,0,1-1.74,1,10.56,10.56,0,0,1-1.61.1H2.42l-.76,3.58H0Zm1.33,1.34-.64,3H4.61a3.31,3.31,0,0,0,1.75-.32,1.6,1.6,0,0,0,.48-.6A1.7,1.7,0,0,0,7,20.85a1.34,1.34,0,0,0-.17-.73.93.93,0,0,0-.5-.41,3.24,3.24,0,0,0-.63-.16q-.3,0-.75,0Z"/><path d="M12.05,18.18h3.69a7.78,7.78,0,0,1,1.55.13,2,2,0,0,1,1.22.78,2.35,2.35,0,0,1,.43,1.45,2.6,2.6,0,0,1-.56,1.68,2.44,2.44,0,0,1-1.52.85,1.54,1.54,0,0,1,.74.58,2.11,2.11,0,0,1,.21,1c0,.06,0,.35,0,.86s-.05.89-.05,1.14a1.64,1.64,0,0,0,.14.76H16.21a1.68,1.68,0,0,1-.1-.68c0-.14,0-.45.07-1s.07-.83.07-1c0-.51-.12-.83-.36-1a2.68,2.68,0,0,0-1.24-.21H12.52l-.81,3.81H10.1Zm1.34,1.33-.61,2.9h2.56a2.33,2.33,0,0,0,1.31-.3,1.56,1.56,0,0,0,.68-1.37,1.29,1.29,0,0,0-.15-.66.91.91,0,0,0-.44-.38,2.46,2.46,0,0,0-.56-.15,4.52,4.52,0,0,0-.68,0Z"/><path d="M30.15,22a6.82,6.82,0,0,1-.59,2.85,5,5,0,0,1-1.77,2.08,4.79,4.79,0,0,1-2.73.8,3.84,3.84,0,0,1-2.91-1.1,4.16,4.16,0,0,1-1-3,5.79,5.79,0,0,1,1.4-4A4.69,4.69,0,0,1,26.22,18a3.87,3.87,0,0,1,2.87,1.07A4,4,0,0,1,30.15,22Zm-4-2.61a2.92,2.92,0,0,0-1.9.65,3.83,3.83,0,0,0-1.15,1.59,5.6,5.6,0,0,0-.36,2,2.94,2.94,0,0,0,.65,2,2.26,2.26,0,0,0,1.79.74,2.75,2.75,0,0,0,1.87-.7A4.13,4.13,0,0,0,28.16,24a6,6,0,0,0,.35-2,2.88,2.88,0,0,0-.6-1.93A2.25,2.25,0,0,0,26.12,19.35Z"/><path d="M33.93,18.18h2.31a17.7,17.7,0,0,1,1.77.06,3.45,3.45,0,0,1,1,.27,3,3,0,0,1,1.42,1.3,4.19,4.19,0,0,1,.51,2.12A6.1,6.1,0,0,1,40,25.18a4.45,4.45,0,0,1-2.52,2,8.73,8.73,0,0,1-2.46.25H32Zm1.34,1.35-1.39,6.56h1.8a3.33,3.33,0,0,0,2.11-.63A3.64,3.64,0,0,0,38.89,24a4.9,4.9,0,0,0,.42-2A3.12,3.12,0,0,0,39,20.5a1.63,1.63,0,0,0-1.09-.85,5.23,5.23,0,0,0-1.27-.12Z"/><path d="M52.42,18.18l-1.3,6.22A3.74,3.74,0,0,1,47,27.62a5.57,5.57,0,0,1-1.3-.15A3.89,3.89,0,0,1,44.58,27a2.34,2.34,0,0,1-.84-.87,2.61,2.61,0,0,1-.31-1.28,7.79,7.79,0,0,1,.2-1.39l1.1-5.29h1.63l-1.11,5.27a7.72,7.72,0,0,0-.18,1.22,1.46,1.46,0,0,0,.51,1.19,2.28,2.28,0,0,0,1.47.42,3.64,3.64,0,0,0,.77-.08,3.87,3.87,0,0,0,.58-.2,1.43,1.43,0,0,0,.45-.38c.13-.16.23-.31.31-.43a2.85,2.85,0,0,0,.23-.57l.17-.6q0-.22.15-.69l1.09-5.15Z"/><path d="M62.49,24.21A4.21,4.21,0,0,1,61,26.74a4.38,4.38,0,0,1-2.81.92,3.76,3.76,0,0,1-2.85-1.07,4.17,4.17,0,0,1-1-3,6.52,6.52,0,0,1,.59-2.77,4.92,4.92,0,0,1,1.75-2.06,4.7,4.7,0,0,1,2.71-.8,3.77,3.77,0,0,1,2.58.86,2.89,2.89,0,0,1,1,2.28v.17H61.35a2.06,2.06,0,0,0-.56-1.49,2.24,2.24,0,0,0-1.56-.48,2.8,2.8,0,0,0-1.45.4,3.1,3.1,0,0,0-1,1,5,5,0,0,0-.61,1.37,5.4,5.4,0,0,0-.2,1.49,3,3,0,0,0,.61,2,2.16,2.16,0,0,0,1.73.72,2.49,2.49,0,0,0,1.65-.55,2.85,2.85,0,0,0,.93-1.57Z"/><path d="M73.31,18.18,73,19.52h-3l-1.67,7.92H66.77l1.66-7.92h-3l.29-1.34Z"/><path d="M77.41,18.18l-2,9.26H73.83l2-9.26Z"/><path d="M88.32,22a6.82,6.82,0,0,1-.59,2.85A5,5,0,0,1,86,26.89a4.73,4.73,0,0,1-2.72.8,3.84,3.84,0,0,1-2.91-1.1,4.13,4.13,0,0,1-1.06-3,5.83,5.83,0,0,1,1.4-4A4.69,4.69,0,0,1,84.4,18a3.86,3.86,0,0,1,2.86,1.07A3.93,3.93,0,0,1,88.32,22Zm-4-2.61a2.92,2.92,0,0,0-1.9.65,3.83,3.83,0,0,0-1.15,1.59,5.6,5.6,0,0,0-.36,2,2.94,2.94,0,0,0,.65,2,2.3,2.3,0,0,0,1.8.74,2.72,2.72,0,0,0,1.86-.7A3.94,3.94,0,0,0,86.33,24a5.75,5.75,0,0,0,.35-2,2.88,2.88,0,0,0-.6-1.93A2.23,2.23,0,0,0,84.29,19.35Z"/><path d="M99.68,18.18l-2,9.26H96l-2.3-5.53a18.67,18.67,0,0,1-.64-1.76,23.39,23.39,0,0,1-.43,2.46l-1,4.83H90.08l2-9.26h1.69L96,23.69c.28.71.5,1.31.66,1.82.06-.59.23-1.54.51-2.87l.93-4.46Z"/></g></g></g></svg>