<?xml version="1.0" encoding="utf-8"?>
<!-- Generator: Adobe Illustrator 23.0.2, SVG Export Plug-In . SVG Version: 6.00 Build 0)  -->
<svg version="1.1" id="Слой_1" xmlns="http://www.w3.org/2000/svg" xmlns:xlink="http://www.w3.org/1999/xlink" x="0px" y="0px"
	 viewBox="0 0 480 480" style="enable-background:new 0 0 480 480;" xml:space="preserve">
<path style="fill:#0b4290" d="M401.7,136h-8.9c10.8-10.5,16.9-24.9,16.9-40v-2.7c22.1-7.8,35.3-30.3,31.4-53.4c-4-23.1-24-39.9-47.4-39.9h-112
	c-8.8,0-16,7.2-16,16v32c0,20.4,12.8,38.5,32,45.3V96c0,15.1,6.1,29.5,16.9,40h-8.9c-30.9,0-56,25.1-56,56v88c0,13.3,10.7,24,24,24
	h8v16c0,4.4,3.6,8,8,8v104c-13.3,0-24,10.7-24,24v16c0,4.4,3.6,8,8,8h160c4.4,0,8-3.6,8-8v-16c0-13.3-10.7-24-24-24v-80
	c0-4.4-3.6-8-8-8s-8,3.6-8,8v80h-40v-80c0-4.4-3.6-8-8-8s-8,3.6-8,8v80h-40V328h112c4.4,0,8-3.6,8-8v-16h8c13.3,0,24-10.7,24-24v-88
	C457.7,161.1,432.6,136,401.7,136z M417.7,448c4.4,0,8,3.6,8,8v8h-64v-16H417.7z M345.7,448v16h-64v-8c0-4.4,3.6-8,8-8H345.7z
	 M313.7,96V56h56c4.4,0,8-3.6,8-8s-3.6-8-8-8h-64c-4.4,0-8,3.6-8,8v27.7c-9.9-5.7-16-16.3-16-27.7V16h112c14.5,0,27.1,9.7,30.9,23.7
	c3.7,14-2.3,28.7-14.9,36V48c0-4.4-3.6-8-8-8s-8,3.6-8,8v48c0,22.1-17.9,40-40,40C331.6,136,313.7,118.1,313.7,96z M305.7,152h96
	c22.1,0,40,17.9,40,40v56h-16v-32c0-4.4-3.6-8-8-8h-8v-16c0-4.4-3.6-8-8-8s-8,3.6-8,8v16h-17.8l16.7-27.9c1.7-3.7,0.3-8.1-3.3-10.2
	c-3.5-2.1-8.1-1.1-10.5,2.2l-9.1,15V176c0-4.4-3.6-8-8-8h-32c-4.4,0-8,3.6-8,8h-24c-4.4,0-8,3.6-8,8v24c-4.4,0-8,3.6-8,8v32h-16v-56
	C265.7,169.9,283.6,152,305.7,152z M305.7,208v-16h16v16H305.7z M337.7,184h16v24h-16V184z M265.7,280v-16h32c4.4,0,8,3.6,8,8v8
	c0,4.4-3.6,8-8,8h-24C269.3,288,265.7,284.4,265.7,280z M409.7,312h-48v-40c0-4.4-3.6-8-8-8s-8,3.6-8,8v40h-48v-8
	c13.3,0,24-10.7,24-24v-8c0-13.3-10.7-24-24-24v-24h112v24c-13.3,0-24,10.7-24,24v8c0,13.3,10.7,24,24,24V312z M441.7,280
	c0,4.4-3.6,8-8,8h-24c-4.4,0-8-3.6-8-8v-8c0-4.4,3.6-8,8-8h32V280z"/>
<path style="fill:#0b4290"  d="M225.7,208h-56v-24c0.2-3.7-2.2-6.9-5.7-8c-3.4-1-7,0.3-9,3.3l-48,72c-1.8,2.7-1.8,6.1,0,8.8l48,72c1.4,2.4,3.9,3.8,6.6,3.9
	c0.8,0.1,1.6,0.1,2.3,0c3.5-1.1,5.8-4.3,5.7-8v-24h48c4.4,0,8-3.6,8-8s-3.6-8-8-8h-56c-4.4,0-8,3.6-8,8v5.6L123.3,256l30.4-45.6v5.6
	c0,4.4,3.6,8,8,8h64c4.4,0,8-3.6,8-8S230.1,208,225.7,208z"/>
<path style="fill:#0b4290"  d="M193.7,320c-4.4,0-8,3.6-8,8v56h-96V128c0-2.3-1-4.6-2.8-6.1L47.3,88h138.4v96c0,4.4,3.6,8,8,8s8-3.6,8-8V80
	c0-4.4-3.6-8-8-8h-168c-0.9,0-1.9,0.2-2.7,0.5V392c0,2.3,1,4.6,2.8,6.1l56,48c-0.1,0.6-0.1,1.3-0.1,1.9c1.2,0,2.3-0.3,3.4-0.7
	c2.8-1.3,4.6-4.2,4.6-7.3v-40h104c4.4,0,8-3.6,8-8v-64C201.7,323.6,198.1,320,193.7,320z M73.7,422.6l-40-34.3v-291l40,34.3v137
	l-10.3-10.4c-3.1-3.1-8.2-3.1-11.4,0s-3.1,8.2,0,11.4l21.7,21.6V422.6z"/>
</svg>
