<?xml version="1.0" encoding="utf-8"?>
<!-- Generator: Adobe Illustrator 23.0.2, SVG Export Plug-In . SVG Version: 6.00 Build 0)  -->
<svg version="1.1" id="Слой_1" xmlns="http://www.w3.org/2000/svg" xmlns:xlink="http://www.w3.org/1999/xlink" x="0px" y="0px"
	 viewBox="0 0 512 512" style="enable-background:new 0 0 512 512;" xml:space="preserve">
<path style="fill:#0b4290"  d="M450.4,356.5c-3.5-2.3-8.1-1.3-10.4,2.1l-27.9,42.1L398,387.2c-3-2.9-7.8-2.7-10.6,0.3s-2.7,7.8,0.3,10.6
	c0,0,20.7,19.6,20.7,19.6c3.3,3.1,8.9,2.5,11.4-1.3l32.8-49.5C454.8,363.4,453.9,358.8,450.4,356.5z"/>
<path style="fill:#0b4290"  d="M313.1,419.4H50v-32.2h1.4c9.3,0,16.8-7.5,16.8-16.8v-58.3c0-9.3-7.5-16.8-16.8-16.8H50V191.1h1.4c9.3,0,16.8-7.5,16.8-16.8
	V116c0-9.3-7.5-16.8-16.8-16.8H50V67h352.4v201.8c0,4.1,3.4,7.5,7.5,7.5c4.1,0,7.5-3.4,7.5-7.5V66.2c0-7.8-6.4-14.2-14.2-14.2h-354
	C41.4,52,35,58.4,35,66.2v33.2c-8.1,1.2-14.3,8.2-14.3,16.6v58.3c0,8.4,6.2,15.4,14.3,16.6v104.5c-8.1,1.2-14.3,8.2-14.3,16.6v58.3
	c0,8.4,6.2,15.4,14.3,16.6v33.2c0,7.8,6.4,14.2,14.2,14.2h263.9c4.1,0,7.5-3.4,7.5-7.5S317.3,419.4,313.1,419.4z M53.3,312.1v58.3
	c0,1-0.8,1.8-1.8,1.8H37.6c-1,0-1.8-0.8-1.8-1.8v-58.3c0-1,0.8-1.8,1.8-1.8h13.9C52.5,310.3,53.3,311.1,53.3,312.1z M53.3,116v58.3
	c0,1-0.8,1.8-1.8,1.8H37.6c-1,0-1.8-0.8-1.8-1.8V116c0-1,0.8-1.8,1.8-1.8h13.9C52.5,114.2,53.3,115,53.3,116z"/>
<path style="fill:#0b4290"  d="M325.2,272.4l-33.5-19.3c0.6-3.6,0.9-7.2,0.9-11c0-29-18.7-53.7-44.6-62.7v-38.3c0-11.9-9.7-21.6-21.6-21.6h-0.3
	c-12,0-21.7,9.8-21.7,21.7v38.1c-26,9-44.6,33.7-44.6,62.7c0,3.7,0.3,7.4,0.9,11l-33.5,19.3c-10.2,5.9-13.9,19-8.2,29.3l0.2,0.4
	c8.4,13.5,22.2,11.8,29.7,8l32.6-18.8c11.8,10.7,27.4,17.2,44.6,17.2c17.1,0,32.8-6.5,44.6-17.2l32.6,18.8c15.6,9.7,25.9-1.8,29.7-8
	l0.2-0.4C339.1,291.5,335.4,278.3,325.2,272.4z M219.5,141.2c0-3.7,3-6.7,6.8-6.7h0.2c3.6,0,6.6,2.9,6.6,6.6c0,11.6,0.3,23.3,0,34.9
	c-7.7-1.4-13.5,0.1-13.5,0.1C219.5,176,219.5,141.2,219.5,141.2z M141.5,297.1c-2.2,1.5-6.9,1-9.1-2.4l-0.2-0.4
	c-1.7-3.1-0.6-7.2,2.6-9l30.3-17.5c1.8,4.2,4,8.2,6.5,11.9L141.5,297.1z M226.2,293.5c-28.3,0-51.4-23.1-51.4-51.4
	c0-28.3,23.1-51.4,51.4-51.4c28.3,0,51.4,23.1,51.4,51.4C277.6,270.4,254.6,293.5,226.2,293.5z M320.2,294.4l-0.2,0.3
	c-1.2,2.2-5,5-9.1,2.4l-30-17.3c2.6-3.7,4.7-7.7,6.5-11.9l30.3,17.5C320.8,287.2,322,291.3,320.2,294.4z"/>
<path style="fill:#0b4290"  d="M226.2,213.8c-15.6,0-28.3,12.7-28.3,28.3c0,15.6,12.7,28.3,28.3,28.3s28.3-12.7,28.3-28.3S241.8,213.8,226.2,213.8z
	 M226.2,255.4c-7.3,0-13.3-6-13.3-13.3c0-7.3,6-13.3,13.3-13.3s13.3,6,13.3,13.3C239.5,249.4,233.6,255.4,226.2,255.4z"/>
<path style="fill:#0b4290"  d="M503.1,341.3c-14-5.8-23.6-18.9-24.9-34c-0.5-6.3-5.9-11.2-12.2-11.2h-0.1l-13.4,0.1V43.3c0-14.5-11.8-26.3-26.3-26.3H26.3
	C11.8,17,0,28.8,0,43.3v399.8c0,14.5,11.8,26.3,26.3,26.3h349c10.3,9.1,22.6,17.3,37.1,24c2.5,1.2,5.7,1.2,8.3,0
	c76.2-36.2,89.1-114.3,91.3-137.4C512.5,349.6,509,343.7,503.1,341.3z M15,443.1V43.3C15,37.1,20.1,32,26.3,32h399.8
	c6.2,0,11.3,5.1,11.3,11.3v252.9l-72.6,0.4c-6.4,0-11.7,4.9-12.2,11.4c-1.2,15.2-10.6,28.3-24.5,34.3c-5.8,2.5-9.3,8.4-8.6,14.7
	c1.7,16.4,9.2,60.5,40.9,97.4H26.3C20.1,454.4,15,449.4,15,443.1z M416.4,478.7c-67-32.3-79.7-101.4-82-122.8
	c18.1-7.9,30.6-24.7,32.9-44.3l96.1-0.6c2.6,19.5,15.2,36.1,33.4,43.9C494.9,376.4,483.1,445.7,416.4,478.7z"/>
</svg>
