<?xml version="1.0" encoding="utf-8"?>
<!-- Generator: Adobe Illustrator 23.0.2, SVG Export Plug-In . SVG Version: 6.00 Build 0)  -->
<svg version="1.1" id="Capa_1" xmlns="http://www.w3.org/2000/svg" xmlns:xlink="http://www.w3.org/1999/xlink" x="0px" y="0px"
	 viewBox="0 0 189.6 189.6" style="enable-background:new 0 0 189.6 189.6;" xml:space="preserve">
<path d="M171.4,174.5h-23.5c-1.4,0-2.5-1.1-2.5-2.5v-10.9H44.1V172c0,1.4-1.1,2.5-2.5,2.5H18.2c-1.4,0-2.5-1.1-2.5-2.5v-10.9
	C6.9,160.5,0,153.2,0,144.3V31.8c0-9.2,7.5-16.8,16.8-16.8h156.1c9.2,0,16.8,7.5,16.8,16.8v112.5c0,8.9-6.9,16.2-15.7,16.7V172
	C173.9,173.4,172.8,174.5,171.4,174.5z M150.4,169.5h18.5v-8.4h-18.5L150.4,169.5L150.4,169.5z M20.7,169.5h18.5v-8.4H20.7V169.5z
	 M171.4,156.1h1.4c6.5,0,11.8-5.3,11.8-11.8V31.8c0-6.5-5.3-11.8-11.8-11.8H16.8C10.3,20.1,5,25.3,5,31.8v112.5
	c0,6.5,5.3,11.8,11.8,11.8H171.4z M162.5,146.6H27.1c-6.3,0-11.4-5.1-11.4-11.4V41c0-6.3,5.1-11.4,11.4-11.4h135.4
	c6.3,0,11.4,5.1,11.4,11.4v94.2C173.9,141.5,168.8,146.6,162.5,146.6z M27.1,34.6c-3.5,0-6.4,2.9-6.4,6.4v94.2
	c0,3.5,2.9,6.4,6.4,6.4h135.4c3.5,0,6.4-2.9,6.4-6.4V41c0-3.5-2.9-6.4-6.4-6.4H27.1z M63.5,115.5c-1.4,0-2.5-1.1-2.5-2.5v-3.3
	c-4.4-0.5-8.3-2.3-11.5-5l-2.7,2.7c-1,1-2.6,1-3.5,0c-1-1-1-2.6,0-3.5L46,101c-2.2-3-3.7-6.5-4.1-10.4h-3.2c-1.4,0-2.5-1.1-2.5-2.5
	s1.1-2.5,2.5-2.5h3.2c0.5-4.1,2-7.8,4.4-10.8l-2.4-2.4c-1-1-1-2.6,0-3.5c1-1,2.6-1,3.5,0l2.4,2.4c3.1-2.5,7-4.2,11.2-4.7v-3.2
	c0-1.4,1.1-2.5,2.5-2.5s2.5,1.1,2.5,2.5v3.2c4.4,0.5,8.4,2.3,11.6,5l2.7-2.7c1-1,2.6-1,3.5,0c1,1,1,2.6,0,3.5l-2.8,2.8
	c2.2,3,3.7,6.5,4.1,10.4h3.2c1.4,0,2.5,1.1,2.5,2.5s-1.1,2.5-2.5,2.5H85c-0.5,4-2,7.6-4.3,10.6l2.7,2.7c1,1,1,2.6,0,3.5
	c-1,1-2.6,1-3.5,0l-2.6-2.6c-3.2,2.6-7.1,4.4-11.4,4.9v3.3C66,114.3,64.8,115.5,63.5,115.5z M63.5,71.4c-9.2,0-16.7,7.5-16.7,16.7
	s7.5,16.7,16.7,16.7s16.7-7.5,16.7-16.7C80.2,78.9,72.7,71.4,63.5,71.4z M63.5,98.7c-5.8,0-10.6-4.7-10.6-10.6s4.7-10.6,10.6-10.6
	S74,82.3,74,88.1S69.3,98.7,63.5,98.7z M63.5,82.5c-3.1,0-5.6,2.5-5.6,5.6s2.5,5.6,5.6,5.6c3.1,0,5.6-2.5,5.6-5.6
	S66.5,82.5,63.5,82.5z M150.6,97.4h-43.2c-1.4,0-2.5-1.1-2.5-2.5V81.3c0-1.4,1.1-2.5,2.5-2.5h43.2c1.4,0,2.5,1.1,2.5,2.5v13.7
	C153.1,96.3,152,97.4,150.6,97.4z M109.9,92.4h38.2v-8.7h-38.2V92.4z"/>
</svg>
