<?xml version="1.0" encoding="utf-8"?><svg xmlns="http://www.w3.org/2000/svg" xmlns:xlink="http://www.w3.org/1999/xlink"><symbol viewBox="0 0 512.1 512.1" id="call" xmlns="http://www.w3.org/2000/svg"><path d="M498.6 395L395 325.9c-13.2-8.7-30.8-5.8-40.5 6.6l-30.2 38.8c-3.9 5.1-10.9 6.6-16.5 3.5l-5.7-3.2c-19-10.4-42.7-23.3-90.5-71s-60.7-71.4-71-90.5l-3.1-5.7c-3.2-5.6-1.7-12.7 3.4-16.6l38.8-30.2c12.4-9.7 15.3-27.4 6.6-40.5L117 13.5C108.1.1 90.3-4 76.5 4.3l-43.3 26c-13.6 8-23.6 21-27.9 36.2-15.6 56.9-3.9 155 140.7 299.6C261 481.1 346.6 512 405.5 512c13.5.1 27-1.7 40.1-5.2 15.2-4.3 28.2-14.3 36.2-27.9l26.1-43.3c8.2-13.8 4.1-31.6-9.3-40.6zm-5.5 31.9l-26 43.3c-5.7 9.8-15.1 17.1-26 20.2-52.5 14.4-144.2 2.5-283-136.3S7.3 123.6 21.7 71.1c3.1-11 10.4-20.3 20.2-26.1l43.3-26c6-3.6 13.7-1.9 17.6 4l37.5 56.4 31.5 47.3c3.8 5.7 2.5 13.4-2.9 17.6l-38.8 30.2c-11.8 9-15.2 25.4-7.9 38.3l3.1 5.6c10.9 20 24.5 44.9 74 94.4 49.5 49.5 74.4 63.1 94.4 74l5.6 3.1c13 7.3 29.3 3.9 38.3-7.9l30.2-38.8c4.2-5.4 11.9-6.6 17.6-2.9L489 409.4c5.9 3.7 7.7 11.5 4.1 17.5zM290.2 85.4c80.1.1 145 65 145.1 145.1 0 4.7 3.8 8.5 8.5 8.5s8.5-3.8 8.5-8.5c-.1-89.5-72.6-162-162.1-162.1-4.7 0-8.5 3.8-8.5 8.5s3.7 8.5 8.5 8.5z"/><path d="M290.2 136.6c51.8.1 93.8 42.1 93.9 93.9 0 4.7 3.8 8.5 8.5 8.5s8.5-3.8 8.5-8.5c-.1-61.2-49.7-110.9-110.9-110.9-4.7 0-8.5 3.8-8.5 8.5-.1 4.7 3.7 8.5 8.5 8.5z"/><path d="M290.2 187.8c23.6 0 42.6 19.1 42.7 42.7 0 4.7 3.8 8.5 8.5 8.5s8.5-3.8 8.5-8.5c0-33-26.8-59.7-59.7-59.7-4.7 0-8.5 3.8-8.5 8.5s3.7 8.5 8.5 8.5z"/></symbol><symbol viewBox="0 0 24 22" id="cart" xmlns="http://www.w3.org/2000/svg"><path d="M24 4.6l-2.7 11c-.1.3-.3.5-.7.5H7.9c-.3 0-.6-.2-.7-.5l-2.7-11-.8-3.1h-3c-.4 0-.7-.4-.7-.8S.3 0 .7 0h3.6c.3 0 .6.2.7.5l.8 3.1h17.6c.2 0 .4.1.5.3s.1.5.1.7zm-6.4 10H20l.5-2.2h-3v2.2zm0-3.6H21l.5-2.2h-3.9V11zm-6.7-5.9H6.1l.5 2.2h4.2c.1 0 .1-2.2.1-2.2zm0 3.7H7l.5 2.2h3.3c.1 0 .1-2.2.1-2.2zm0 3.6h-3l.5 2.2h2.4c.1 0 .1-2.2.1-2.2zm5.3-7.3h-4v2.2h4V5.1zm0 3.7h-4V11h4V8.8zm0 3.6h-4v2.2h4v-2.2zm1.4-7.3v2.2h4.2l.5-2.2h-4.7zM9.7 16.7c1.4 0 2.5 1.2 2.5 2.7S11.1 22 9.7 22s-2.5-1.2-2.5-2.7 1.1-2.6 2.5-2.6zm0 3.8c.6 0 1.1-.5 1.1-1.2s-.5-1.2-1.1-1.2-1.1.5-1.1 1.2.5 1.2 1.1 1.2zm9.1-3.8c1.4 0 2.5 1.2 2.5 2.7S20.2 22 18.8 22s-2.5-1.2-2.5-2.7 1.1-2.6 2.5-2.6zm0 3.8c.6 0 1.1-.5 1.1-1.2s-.5-1.2-1.1-1.2-1.1.5-1.1 1.2c-.1.7.4 1.2 1.1 1.2z" fill-rule="evenodd" clip-rule="evenodd"/></symbol><symbol viewBox="0 0 473 473" id="chat" xmlns="http://www.w3.org/2000/svg"><path d="M403.6 69.3C358.9 24.6 299.6 0 236.4 0S113.9 24.6 69.2 69.3c-86.4 86.4-92.4 224.7-14.9 318-7.6 15.3-19.8 33.1-37.9 42-8.7 4.3-13.6 13.6-12.1 23.2s8.9 17.1 18.5 18.6c4.5.7 10.9 1.4 18.7 1.4 20.9 0 51.7-4.9 83.2-27.6 35.1 18.9 73.5 28.1 111.6 28.1 61.2 0 121.8-23.7 167.4-69.3 44.7-44.7 69.3-104 69.3-167.2S448.3 114 403.6 69.3zm-19.1 315.3c-67.5 67.5-172 80.9-254.2 32.6-5.4-3.2-12.1-2.2-16.4 2.1-.4.2-.8.5-1.1.8-27.1 21-53.7 25.4-71.3 25.4h-.1c20.3-14.8 33.1-36.8 40.6-53.9 1.2-2.9 1.4-5.9.7-8.7-.3-2.7-1.4-5.4-3.3-7.6C6.2 292.6 10 166.6 88.2 88.4c81.7-81.7 214.6-81.7 296.2 0 81.8 81.7 81.8 214.5.1 296.2z"/><circle cx="236.4" cy="236.5" r="16.6"/><circle cx="322" cy="236.5" r="16.6"/><circle cx="150.8" cy="236.5" r="16.6"/></symbol><symbol viewBox="0 0 344.96 344.96" id="check" xmlns="http://www.w3.org/2000/svg"><g data-name="Слой 2"><path d="M321.85 86.24l-40-23.11-23.1-40H212.5L172.48 0l-40 23.11H86.24l-23.11 40-40 23.1v46.21L0 172.48l23.11 40v46.21l40 23.11 23.11 40h46.21l40 23.1 40-23.11h46.21l23.11-40 40-23.11V212.5l23.11-40-23.11-40V86.24zM156.91 243.07a16.79 16.79 0 01-23.34 0l-50.45-50.44a16.19 16.19 0 010-22.89l13.35-13.35a16.19 16.19 0 0122.89 0l25.87 25.87 80.34-80.35a16.19 16.19 0 0122.89 0l13.35 13.35a16.19 16.19 0 010 22.89z" data-name="Capa 1"/></g></symbol><symbol viewBox="0 0 512 512" id="check-mark" xmlns="http://www.w3.org/2000/svg"><path d="M437.019 74.98C388.667 26.629 324.38 0 256 0 187.619 0 123.331 26.629 74.98 74.98 26.628 123.332 0 187.62 0 256s26.628 132.667 74.98 181.019C123.332 485.371 187.619 512 256 512c68.38 0 132.667-26.629 181.019-74.981C485.371 388.667 512 324.38 512 256s-26.629-132.667-74.981-181.02zM256 482C131.383 482 30 380.617 30 256S131.383 30 256 30s226 101.383 226 226-101.383 226-226 226z"/><path d="M378.305 173.859c-5.857-5.856-15.355-5.856-21.212.001L224.634 306.319l-69.727-69.727c-5.857-5.857-15.355-5.857-21.213 0-5.858 5.857-5.858 15.355 0 21.213l80.333 80.333a14.953 14.953 0 0010.606 4.393c3.838 0 7.678-1.465 10.606-4.393l143.066-143.066c5.858-5.857 5.858-15.355 0-21.213z"/></symbol><symbol viewBox="0 0 792 792" id="chevron-left" xmlns="http://www.w3.org/2000/svg"><path d="M245.5 396L617.1 56.6c13-12.9 13-33.9 0-46.9s-34-12.9-47 0L174.6 370.9c-6.9 6.9-9.9 16.1-9.4 25.1-.5 9 2.5 18.2 9.4 25.1l395.5 361.2c13 12.9 34 12.9 47 0s13-33.9 0-46.9L245.5 396z"/></symbol><symbol viewBox="0 0 559.98 559.98" id="clock-circular-outline" xmlns="http://www.w3.org/2000/svg"><path d="M279.99 0C125.601 0 0 125.601 0 279.99c0 154.39 125.601 279.99 279.99 279.99 154.39 0 279.99-125.601 279.99-279.99S434.38 0 279.99 0zm0 498.78c-120.644 0-218.79-98.146-218.79-218.79 0-120.638 98.146-218.79 218.79-218.79s218.79 98.152 218.79 218.79c0 120.644-98.146 218.79-218.79 218.79z"/><path d="M304.226 280.326v-117.35c0-13.103-10.618-23.721-23.716-23.721-13.102 0-23.721 10.618-23.721 23.721v124.928c0 .373.092.723.11 1.096-.312 6.45 1.91 12.999 6.836 17.926l88.343 88.336c9.266 9.266 24.284 9.266 33.543 0 9.26-9.266 9.266-24.284 0-33.544l-81.395-81.392z"/></symbol><symbol viewBox="0 0 512.16 512.16" id="credit-card" xmlns="http://www.w3.org/2000/svg"><path d="M273.067 337.147H409.6c5.12 0 8.533-3.413 8.533-8.533v-76.8c0-5.12-3.413-8.533-8.533-8.533H273.067c-5.12 0-8.533 3.413-8.533 8.533v76.8c-.001 5.119 3.413 8.533 8.533 8.533zm8.533-76.8h119.467v59.733H281.6v-59.733zM42.667 226.213h68.267c5.12 0 8.533-3.413 8.533-8.533s-3.413-8.533-8.533-8.533H42.667c-5.12 0-8.533 3.413-8.533 8.533s3.413 8.533 8.533 8.533zm102.4 0h68.267c5.12 0 8.533-3.413 8.533-8.533s-3.413-8.533-8.533-8.533h-68.267c-5.12 0-8.533 3.413-8.533 8.533s3.413 8.533 8.533 8.533zm-102.4 34.134H153.6c5.12 0 8.533-3.413 8.533-8.533s-3.413-8.533-8.533-8.533H42.667c-5.12 0-8.533 3.413-8.533 8.533s3.413 8.533 8.533 8.533zm170.666-17.067h-25.6c-5.12 0-8.533 3.413-8.533 8.533s3.413 8.533 8.533 8.533h25.6c5.12 0 8.533-3.413 8.533-8.533s-3.413-8.533-8.533-8.533z"/><path d="M504.32 137.467c-5.973-7.68-13.653-11.947-23.04-12.8l-20.48-2.482V81.147c0-18.773-15.36-34.133-34.133-34.133H34.133C15.36 47.013 0 62.373 0 81.147v273.067c0 15.413 10.357 28.518 24.453 32.718-.43 17.262 12.631 32.248 30.161 33.842l394.24 44.373h3.413c17.067 0 32.427-12.8 34.133-29.013l25.6-273.92c.853-8.534-1.707-17.921-7.68-24.747zm-487.253-30.72h426.667v51.2H17.067v-51.2zM34.133 64.08h392.533c9.387 0 17.067 7.68 17.067 17.067v8.533H17.067v-8.533c0-9.387 7.68-17.067 17.066-17.067zM17.067 354.213v-179.2h426.667v179.2c0 9.387-7.68 17.067-17.067 17.067H34.134c-9.387 0-17.067-7.68-17.067-17.067zM494.933 158.8l-25.6 273.92c-.853 9.387-9.387 16.213-18.773 15.36L57.173 403.707c-8.533-.853-14.507-7.68-15.36-15.36h384.853c18.773 0 34.133-15.36 34.133-34.133V138.32l19.627 1.707c4.267 0 8.533 2.56 11.093 5.973 2.561 3.413 4.268 8.533 3.414 12.8z"/></symbol><symbol viewBox="0 0 24 24" id="email" xmlns="http://www.w3.org/2000/svg"><path d="M22.7 3.5L12 12.3 1.3 3.5h21.4zM24 19c0 .5-.3 1-.9 1h-22c-.5 0-1-.3-1.1-.8V4.8l2.4 2 8.9 7.4c.3.4 1 .4 1.3 0l11-9.1.4-.3V19z"/></symbol><symbol viewBox="0 0 550.795 550.795" id="envelope-shape" xmlns="http://www.w3.org/2000/svg"><path d="M501.613 491.782c12.381 0 23.109-4.088 32.229-12.16L377.793 323.567a2878.213 2878.213 0 00-10.801 7.767c-11.678 8.604-21.156 15.318-28.434 20.129-7.277 4.822-16.959 9.737-29.045 14.755-12.094 5.024-23.361 7.528-33.813 7.528h-.612c-10.453 0-21.72-2.503-33.813-7.528-12.093-5.018-21.775-9.933-29.045-14.755-7.277-4.811-16.75-11.524-28.434-20.129a1351.934 1351.934 0 00-10.771-7.809L16.946 479.622c9.119 8.072 19.854 12.16 32.234 12.16h452.433zM31.047 225.299C19.37 217.514 9.015 208.598 0 198.555V435.98l137.541-137.541c-27.516-19.21-62.969-43.562-106.494-73.14zm489.012 0c-41.865 28.336-77.447 52.73-106.75 73.195l137.486 137.492V198.555c-8.815 9.841-19.059 18.751-30.736 26.744z"/><path d="M501.613 59.013H49.181c-15.784 0-27.919 5.33-36.42 15.979C4.253 85.646.006 98.97.006 114.949c0 12.907 5.636 26.892 16.903 41.959 11.267 15.061 23.256 26.891 35.961 35.496 6.965 4.921 27.969 19.523 63.012 43.801a20367.497 20367.497 0 0149.505 34.395 8855.122 8855.122 0 0131.022 21.701c.985.691 2.534 1.799 4.59 3.269 2.215 1.591 5.018 3.61 8.476 6.107 6.659 4.816 12.191 8.709 16.597 11.683 4.4 2.975 9.731 6.298 15.985 9.988 6.249 3.685 12.143 6.456 17.675 8.299 5.533 1.842 10.655 2.766 15.367 2.766h.612c4.711 0 9.834-.924 15.368-2.766 5.531-1.843 11.42-4.608 17.674-8.299 6.248-3.69 11.572-7.02 15.986-9.988 4.406-2.974 9.938-6.866 16.598-11.683 3.451-2.497 6.254-4.517 8.469-6.102a643.575 643.575 0 014.596-3.274c6.684-4.651 17.1-11.892 31.104-21.616 25.482-17.705 63.01-43.764 112.742-78.281 14.957-10.447 27.453-23.054 37.496-37.803 10.025-14.749 15.051-30.22 15.051-46.408 0-13.525-4.873-25.098-14.598-34.737-9.736-9.627-21.265-14.443-34.584-14.443z"/></symbol><symbol viewBox="0 0 512 512" id="fire" xmlns="http://www.w3.org/2000/svg"><path d="M446.906 299.769c-5.865-76.359-41.417-124.21-72.781-166.436C345.083 94.241 320 60.483 320 10.685c0-4-2.24-7.656-5.792-9.489-3.563-1.844-7.844-1.542-11.083.812-47.104 33.706-86.406 90.515-100.135 144.719-9.531 37.737-10.792 80.161-10.969 108.18-43.5-9.291-53.354-74.359-53.458-75.068a10.72 10.72 0 00-5.552-7.916c-3.031-1.583-6.594-1.698-9.667-.177-2.281 1.104-55.99 28.394-59.115 137.355-.219 3.625-.229 7.261-.229 10.896 0 105.857 86.135 191.987 192 191.987.146.01.302.031.427 0h.135C362.167 511.681 448 425.667 448 319.997c0-5.323-1.094-20.228-1.094-20.228zM256 490.652c-35.292 0-64-30.581-64-68.172 0-1.281-.01-2.573.083-4.156.427-15.853 3.438-26.675 6.74-33.873 6.188 13.291 17.25 25.509 35.219 25.509a10.66 10.66 0 0010.667-10.666c0-15.186.313-32.706 4.094-48.518 3.365-14.02 11.406-28.936 21.594-40.893 4.531 15.52 13.365 28.081 21.99 40.341 12.344 17.54 25.104 35.675 27.344 66.6.135 1.833.271 3.677.271 5.656-.002 37.59-28.71 68.172-64.002 68.172z"/></symbol><symbol viewBox="0 0 457 457" id="garanty" xmlns="http://www.w3.org/2000/svg"><path d="M338 221.1c0-7.5-3.4-14.5-9.3-19.2 6.2-7.3 7.6-17.5 3.6-26.1-4-8.7-12.7-14.2-22.2-14.2h-54.5l2.2-6c3.5-9.3 5.3-19.2 5.3-29.2v-.9c0-7.6-3.1-14.8-8.5-20.1-5.4-5.3-12.8-8.1-20.4-7.9-15.3.8-27.3 13.6-27.2 28.9 0 7.3-10.2 24-18.5 35.1h-61.4c-3.9 0-7 3.1-7 7v140.1c0 3.9 3.1 7 7 7H299c8.8 0 17-4.8 21.3-12.5 4.3-7.7 4.2-17.1-.4-24.7 7-3.1 12.2-9.4 13.9-16.9 1.7-7.5-.2-15.4-5.2-21.3 6-4.6 9.4-11.6 9.4-19.1zm-203.8-45.5h50.9v126.1h-50.9V175.6zm179.3 56H310c-3.9 0-7 3.1-7 7s3.1 7 7 7c5.8 0 10.5 4.7 10.5 10.5s-4.7 10.5-10.5 10.5h-11c-3.9 0-7 3.1-7 7s3.1 7 7 7c5.8 0 10.5 4.7 10.5 10.5s-4.7 10.5-10.5 10.5H199V171c5.9-7.8 22-30.5 22-44.5-.2-7.8 5.8-14.4 13.6-14.9 3.8-.1 7.5 1.3 10.2 4 2.7 2.6 4.3 6.3 4.3 10.1v.9c0 8.3-1.5 16.5-4.4 24.2l-5.8 15.4c-.8 2.2-.5 4.6.8 6.5 1.3 1.9 3.5 3 5.8 3H310c5.8 0 10.5 4.7 10.5 10.5s-4.7 10.5-10.5 10.5c-3.9 0-7 3.1-7 7s3.1 7 7 7h3.4c5.8 0 10.5 4.7 10.5 10.5s-4.6 10.4-10.4 10.4zm-158.7 29.5c-10.1 0-18.2 8.2-18.2 18.2 0 10.1 8.1 18.2 18.2 18.2s18.2-8.1 18.2-18.2-8.2-18.2-18.2-18.2zm0 22.4c-2.3 0-4.2-1.9-4.2-4.2 0-2.3 1.9-4.2 4.2-4.2 2.3 0 4.2 1.9 4.2 4.2s-1.9 4.2-4.2 4.2zM446 211.8c6.5-10.1 8.6-22.5 5.9-34.2-2.7-11.7-9.9-21.9-20.2-28.2-10.2-6.4-15.8-18.1-14.5-30 1.4-11.9-2-24-9.5-33.4-7.5-9.4-18.5-15.4-30.4-16.7-12-1.3-22.1-9.4-26.1-20.8-3.9-11.4-12.2-20.7-23-25.9-10.8-5.2-23.3-5.9-34.7-1.8-11.4 4-24 1.1-32.5-7.4C252.5 4.8 241 0 229 0s-23.6 4.8-32 13.4c-8.5 8.5-21.1 11.4-32.5 7.4-11.3-4-23.8-3.4-34.6 1.8s-19.1 14.6-23 25.9C103 59.9 92.8 68 80.8 69.3c-12 1.3-22.9 7.3-30.4 16.7-7.5 9.4-10.9 21.4-9.5 33.4 1.4 12-4.2 23.6-14.5 30-10.2 6.4-17.4 16.5-20.1 28.3-2.7 11.7-.6 24 5.9 34.2 6.4 10.2 6.4 23.1 0 33.3a44.82 44.82 0 00-5.9 34.2c2.7 11.7 9.9 21.9 20.2 28.2 10.2 6.4 15.8 18.1 14.5 30-1.4 11.9 2 24 9.5 33.4 7.5 9.4 18.4 15.4 30.4 16.7 12 1.3 22.1 9.4 26 20.8 3.9 11.4 12.2 20.7 23 25.9 10.8 5.2 23.3 5.9 34.7 1.8 11.3-4 24-1.1 32.5 7.4 8.5 8.6 20 13.4 32 13.4s23.6-4.8 32-13.4c8.5-8.5 21.1-11.4 32.5-7.4 11.3 4 23.8 3.4 34.6-1.9 10.8-5.2 19.1-14.6 23-25.9 3.9-11.4 14.1-19.5 26.1-20.8 12-1.3 22.9-7.3 30.4-16.7 7.5-9.4 10.9-21.4 9.5-33.4-1.4-12 4.2-23.6 14.5-30 10.2-6.3 17.5-16.5 20.2-28.2 2.7-11.7.6-24-5.9-34.2-6.5-10.1-6.5-23.1 0-33.3zm-11.8 40.9c4.5 7 5.9 15.5 4.1 23.6-1.8 8.1-6.8 15.1-13.9 19.5-14.8 9.2-23 26.2-21 43.6 1 8.2-1.4 16.5-6.6 23s-12.7 10.6-21 11.5c-17.4 1.9-32.1 13.6-37.8 30.1-2.7 7.8-8.4 14.3-15.9 17.9-7.5 3.6-16.1 4.1-23.9 1.3-16.5-5.8-34.8-1.6-47.1 10.8-5.8 5.9-13.8 9.2-22.1 9.2s-16.2-3.3-22.1-9.2c-12.3-12.4-30.7-16.6-47.1-10.8-7.8 2.8-16.4 2.3-23.9-1.3s-13.2-10-15.9-17.9c-5.7-16.5-20.4-28.2-37.8-30.1-8.2-.9-15.8-5-21-11.5s-7.5-14.8-6.6-23c2-17.4-6.1-34.3-21-43.6-7-4.4-12.1-11.4-13.9-19.5-1.8-8.1-.4-16.6 4.1-23.6 9.3-14.8 9.3-33.6 0-48.3-4.5-7-5.9-15.5-4.1-23.6 1.8-8.1 6.8-15.1 13.9-19.5 14.8-9.2 23-26.2 21-43.6-1-8.2 1.4-16.5 6.6-23 5.2-6.5 12.7-10.6 21-11.5 17.4-1.9 32.1-13.6 37.8-30.1 2.7-7.8 8.4-14.3 15.9-17.9 7.5-3.6 16.1-4.1 23.9-1.3 16.5 5.8 34.8 1.6 47.1-10.8 5.8-5.9 13.8-9.2 22.1-9.2s16.2 3.3 22.1 9.2c12.3 12.4 30.7 16.6 47.1 10.8 7.8-2.8 16.4-2.3 23.9 1.3 7.5 3.6 13.2 10 15.9 17.9 5.7 16.5 20.4 28.2 37.8 30.1 8.2.9 15.8 5 21 11.5 5.2 6.5 7.5 14.8 6.6 23-2 17.4 6.1 34.3 21 43.6 7 4.4 12.1 11.4 13.9 19.5 1.8 8.1.4 16.6-4.1 23.6-9.4 14.7-9.4 33.5 0 48.3zM229.1 58.3c-94 0-170.2 76.2-170.2 170.2s76.2 170.2 170.2 170.2c94 0 170.2-76.2 170.2-170.2-.1-94-76.2-170.1-170.2-170.2zm0 326.4c-86.3 0-156.2-69.9-156.2-156.2S142.8 72.3 229.1 72.3c86.3 0 156.2 69.9 156.2 156.2-.1 86.2-70 156.1-156.2 156.2z"/></symbol><symbol viewBox="0 0 368.029 368.029" id="guarantee" xmlns="http://www.w3.org/2000/svg"><path d="M363.568 204.926c-2.056-7.448-3.992-14.488-3.992-20.912 0-6.424 1.936-13.464 3.992-20.912 3.272-11.856 6.648-24.12 2.608-36.04-4.192-12.4-14.64-20.504-24.744-28.328-6.056-4.696-11.776-9.128-15.488-14.008-3.776-4.976-6.448-11.616-9.264-18.648-4.648-11.552-9.448-23.504-20.2-31.008-10.576-7.392-23.776-8.104-36.52-8.784-7.952-.424-15.472-.832-21.768-2.792-5.888-1.832-11.984-5.632-18.432-9.656C209.384 7.358 197.616.014 184.008.014c-13.608 0-25.376 7.344-35.752 13.832-6.448 4.024-12.528 7.832-18.424 9.656-6.304 1.96-13.824 2.368-21.776 2.792-12.752.688-25.936 1.392-36.52 8.784-10.752 7.504-15.552 19.448-20.2 31-2.832 7.032-5.504 13.68-9.28 18.656-3.712 4.896-9.432 9.328-15.488 14.032-10.096 7.832-20.528 15.92-24.72 28.304-4.04 11.928-.664 24.184 2.6 36.048 2.056 7.448 3.992 14.48 3.992 20.904s-1.936 13.464-3.992 20.912c-3.264 11.856-6.64 24.12-2.6 36.056 4.192 12.384 14.632 20.488 24.728 28.312 6.056 4.688 11.776 9.128 15.48 14.008 3.784 4.976 6.456 11.616 9.28 18.656 4.648 11.552 9.456 23.504 20.216 31.024 10.568 7.376 23.76 8.08 36.504 8.76 7.952.424 15.472.832 21.768 2.792 5.888 1.832 11.976 5.632 18.416 9.648 10.384 6.472 22.152 13.824 35.768 13.824s25.392-7.352 35.784-13.832c6.44-4.016 12.52-7.816 18.416-9.648 6.296-1.96 13.816-2.368 21.768-2.792 12.752-.68 25.936-1.384 36.504-8.76 10.776-7.52 15.576-19.488 20.224-31.048 2.824-7.024 5.488-13.664 9.248-18.624 3.712-4.88 9.432-9.32 15.488-14.008 10.104-7.832 20.544-15.928 24.744-28.32 4.04-11.936.656-24.192-2.616-36.056zm-12.545 30.928c-2.648 7.824-10.784 14.128-19.392 20.8-6.6 5.12-13.432 10.416-18.424 16.976-5.064 6.688-8.264 14.64-11.36 22.344-3.944 9.824-7.672 19.096-14.528 23.88-6.832 4.768-17.208 5.32-28.2 5.904-8.584.456-17.472.928-25.68 3.488-7.848 2.456-15.112 6.976-22.128 11.36-9.4 5.872-18.272 11.408-27.304 11.408s-17.896-5.536-27.296-11.408c-7.008-4.376-14.264-8.904-22.12-11.36-8.208-2.552-17.096-3.032-25.68-3.488-10.992-.584-21.376-1.144-28.2-5.904-6.848-4.784-10.584-14.056-14.528-23.872-3.096-7.704-6.304-15.664-11.376-22.352-4.984-6.56-11.816-11.856-18.424-16.984-8.6-6.672-16.728-12.968-19.376-20.792-2.472-7.288.128-16.712 2.872-26.68 2.24-8.152 4.56-16.568 4.56-25.168 0-8.6-2.32-17.008-4.56-25.16-2.752-9.968-5.344-19.384-2.872-26.672 2.648-7.824 10.768-14.12 19.368-20.792 6.608-5.128 13.448-10.432 18.424-17 5.088-6.688 8.288-14.656 11.392-22.36 3.936-9.816 7.664-19.08 14.504-23.848 6.832-4.776 17.224-5.328 28.224-5.912 8.576-.464 17.464-.936 25.664-3.496 7.864-2.448 15.128-6.984 22.152-11.368 9.384-5.848 18.248-11.384 27.272-11.384s17.896 5.536 27.288 11.4c7.024 4.392 14.28 8.92 22.144 11.368 8.2 2.552 17.08 3.024 25.664 3.488 11 .584 21.384 1.152 28.216 5.92 6.848 4.784 10.576 14.048 14.512 23.848 3.104 7.712 6.296 15.672 11.384 22.36 4.984 6.56 11.816 11.856 18.416 16.976 8.608 6.68 16.744 12.984 19.392 20.824 2.472 7.272-.136 16.688-2.88 26.656-2.248 8.152-4.568 16.568-4.568 25.168s2.312 17.016 4.568 25.16c2.753 9.968 5.352 19.384 2.88 26.672z"/><path d="M184.008 64.014c-66.168 0-120 53.832-120 120s53.832 120 120 120 120-53.832 120-120-53.832-120-120-120zm0 224c-57.344 0-104-46.656-104-104s46.656-104 104-104c29.576 0 56.24 12.472 75.2 32.36l-76.24 107.288-41.304-41.304c-3.128-3.128-8.184-3.128-11.312 0s-3.128 8.184 0 11.312l48 48a7.973 7.973 0 005.656 2.344c.216 0 .448-.008.672-.032a7.971 7.971 0 005.848-3.336l79.176-111.424c11.52 16.736 18.304 36.976 18.304 58.792 0 57.344-46.656 104-104 104z"/></symbol><symbol viewBox="0 0 512 512" id="info" xmlns="http://www.w3.org/2000/svg"><path d="M313.4 107.4C303.5 96.2 288 89.9 271 89.9c-30.4 0-57.7 20.8-60.7 46.4-1.3 11.7 2.3 23 10.2 32 9.8 10.9 25.1 17.2 42 17.2 31.2 0 58-20.4 61-46.3 1.4-11.6-2.2-22.9-10.1-31.8zm-14.2 28.8c-1.5 13.3-18.3 24.6-36.6 24.6-9.8 0-18.7-3.4-23.7-9-3.3-3.7-4.7-8-4.2-12.8 1.5-13.1 18.5-24.6 36.2-24.6 9.9 0 18.9 3.5 24.1 9.3 2.3 2.6 4.8 6.8 4.2 12.5zm2.6 233.3c-3.1-2.1-10.3-6.9-4.5-40.4.1-.7.7-3.4 1.6-7.6 2.1-9.6 5.9-27.3 10.1-47.2v-.1c4.3-21.4.9-40.2-9.7-54.2-9.6-12.7-24.8-20.4-42.8-21.9-26.6-2.1-54.4 13.7-62.9 29.4-3.9 6.9-2.1 12.5-.6 15.3 1.8 3.4 4.5 5.3 6.5 6.7 3 2.1 10.1 7.2 3.4 40.6-.6 3.1-10 50.7-11.2 57.5v.1c-3.7 21.5 0 40.4 11.2 54 18 21.9 45.5 20.8 46.5 20.8 25.6 0 51.1-15.9 58.9-31.1 3.8-7 1.7-12.6.2-15.3-2-3.4-4.8-5.3-6.7-6.6zm-16.9-100.2c-4.1 19.7-8 37.5-10 47-1.4 6.5-1.7 7.8-1.8 8.3v.1c-6.2 35.9.1 51.6 9 60.3-2.4 2.2-5.8 4.5-9.9 6.7-8.1 4.2-17.2 6.4-24.8 6-11.1-.6-19.9-4.6-25.4-11.5-6.5-8.1-8.6-20-6.1-34.4 1.3-7.3 10.7-54.9 11.1-56.8v-.1c7.2-35.7 1.3-51.5-7.4-60.6 2.5-2.1 5.9-4.4 10.1-6.4 8.3-4 17.3-5.9 24.9-5.3 11 .9 19.7 5.1 25.1 12.2 6.2 8.3 8.1 20.2 5.2 34.5z"/><path d="M459.6 395c33.8-40.6 52.4-90.7 52.4-142 0-62.8-26.8-121.7-75.4-166C388.3 43 324.2 18.8 256 18.8S123.7 43 75.4 87C26.8 131.3 0 190.2 0 253s26.8 121.7 75.4 166c48.3 44 112.4 68.2 180.6 68.2 42.6 0 84.6-9.7 121.9-28.2l89.2 33.4c1.4.5 2.9.8 4.3.8 3 0 6-1.1 8.3-3.3 3.4-3.1 4.8-7.9 3.5-12.4L459.6 395zm-78.2 39.1c-3.3-1.2-6.9-1-10 .6-34.9 18.3-74.9 27.9-115.4 27.9-127.6 0-231.4-94-231.4-209.6S128.4 43.4 256 43.4s231.4 94 231.4 209.6c0 48.1-17.5 93.3-50.7 130.8-2.8 3.1-3.8 7.5-2.6 11.5l18.7 65.5-71.4-26.7z"/></symbol><symbol viewBox="0 0 551 551" id="instagram" xmlns="http://www.w3.org/2000/svg"><path d="M386.9 0H164.2C73.6 0 0 73.6 0 164.2v222.7C0 477.4 73.6 551 164.2 551h222.7c90.5 0 164.2-73.6 164.2-164.2V164.2C551 73.6 477.4 0 386.9 0zm108.7 386.9c0 60-48.7 108.7-108.7 108.7H164.2c-60 0-108.7-48.7-108.7-108.7V164.2c0-60 48.7-108.7 108.7-108.7h222.7c60 0 108.7 48.7 108.7 108.7v222.7z"/><path d="M275.5 133C196.9 133 133 196.9 133 275.5S196.9 418 275.5 418 418 354.1 418 275.5 354.1 133 275.5 133zm0 229.6c-48.1 0-87.1-39-87.1-87.1s39-87.1 87.1-87.1c48.1 0 87.1 39 87.1 87.1 0 48.1-39 87.1-87.1 87.1z"/><circle cx="418.3" cy="134.1" r="34.1"/></symbol><symbol viewBox="0 0 512 512" id="maps-and-flags" xmlns="http://www.w3.org/2000/svg"><path d="M256 0C153.755 0 70.573 83.182 70.573 185.426c0 126.888 165.939 313.167 173.004 321.035 6.636 7.391 18.222 7.378 24.846 0 7.065-7.868 173.004-194.147 173.004-321.035C441.425 83.182 358.244 0 256 0zm0 278.719c-51.442 0-93.292-41.851-93.292-93.293S204.559 92.134 256 92.134s93.291 41.851 93.291 93.293-41.85 93.292-93.291 93.292z"/></symbol><symbol viewBox="0 0 512 512" id="placeholder" xmlns="http://www.w3.org/2000/svg"><path d="M256 0C156.7 0 76 80.7 76 180c0 33.5 9.3 66.3 26.9 94.7L245.8 505c2.7 4.4 7.6 7.1 12.7 7.1h.1c5.2 0 10.1-2.8 12.8-7.3l139.2-232.5c16.6-27.8 25.4-59.7 25.4-92.2C436 80.7 355.3 0 256 0zm128.9 256.8L258.3 468.2 128.4 258.8c-14.6-23.6-22.6-50.9-22.6-78.8 0-82.7 67.5-150.2 150.2-150.2S406.1 97.3 406.1 180c0 27.1-7.4 53.7-21.2 76.8z"/><path d="M256 90c-49.6 0-90 40.4-90 90 0 49.3 39.7 90 90 90 50.9 0 90-41.2 90-90 0-49.6-40.4-90-90-90zm0 150.2c-33.3 0-60.2-27-60.2-60.2 0-33.1 27.1-60.2 60.2-60.2s60.1 27.1 60.1 60.2c0 32.7-26.3 60.2-60.1 60.2z"/></symbol><symbol viewBox="0 0 491.236 491.236" id="refresh" xmlns="http://www.w3.org/2000/svg"><path d="M55.89 262.818c-3-26-.5-51.1 6.3-74.3 22.6-77.1 93.5-133.8 177.6-134.8v-50.4c0-2.8 3.5-4.3 5.8-2.6l103.7 76.2c1.7 1.3 1.7 3.9 0 5.1l-103.6 76.2c-2.4 1.7-5.8.2-5.8-2.6v-50.3c-55.3.9-102.5 35-122.8 83.2-7.7 18.2-11.6 38.3-10.5 59.4 1.5 29 12.4 55.7 29.6 77.3 9.2 11.5 7 28.3-4.9 37-11.3 8.3-27.1 6-35.8-5-21.3-26.6-35.5-59-39.6-94.4zm299.4-96.8c17.3 21.5 28.2 48.3 29.6 77.3 1.1 21.2-2.9 41.3-10.5 59.4-20.3 48.2-67.5 82.4-122.8 83.2v-50.3c0-2.8-3.5-4.3-5.8-2.6l-103.7 76.2c-1.7 1.3-1.7 3.9 0 5.1l103.6 76.2c2.4 1.7 5.8.2 5.8-2.6v-50.4c84.1-.9 155.1-57.6 177.6-134.8 6.8-23.2 9.2-48.3 6.3-74.3-4-35.4-18.2-67.8-39.5-94.4-8.8-11-24.5-13.3-35.8-5-11.8 8.7-14 25.5-4.8 37z"/></symbol><symbol viewBox="0 0 189.6 189.6" id="safety-box" xmlns="http://www.w3.org/2000/svg"><path d="M171.4 174.5h-23.5c-1.4 0-2.5-1.1-2.5-2.5v-10.9H44.1V172c0 1.4-1.1 2.5-2.5 2.5H18.2c-1.4 0-2.5-1.1-2.5-2.5v-10.9C6.9 160.5 0 153.2 0 144.3V31.8C0 22.6 7.5 15 16.8 15h156.1c9.2 0 16.8 7.5 16.8 16.8v112.5c0 8.9-6.9 16.2-15.7 16.7v11c-.1 1.4-1.2 2.5-2.6 2.5zm-21-5h18.5v-8.4h-18.5v8.4zm-129.7 0h18.5v-8.4H20.7v8.4zm150.7-13.4h1.4c6.5 0 11.8-5.3 11.8-11.8V31.8c0-6.5-5.3-11.8-11.8-11.8h-156C10.3 20.1 5 25.3 5 31.8v112.5c0 6.5 5.3 11.8 11.8 11.8h154.6zm-8.9-9.5H27.1c-6.3 0-11.4-5.1-11.4-11.4V41c0-6.3 5.1-11.4 11.4-11.4h135.4c6.3 0 11.4 5.1 11.4 11.4v94.2c0 6.3-5.1 11.4-11.4 11.4zM27.1 34.6c-3.5 0-6.4 2.9-6.4 6.4v94.2c0 3.5 2.9 6.4 6.4 6.4h135.4c3.5 0 6.4-2.9 6.4-6.4V41c0-3.5-2.9-6.4-6.4-6.4H27.1zm36.4 80.9c-1.4 0-2.5-1.1-2.5-2.5v-3.3c-4.4-.5-8.3-2.3-11.5-5l-2.7 2.7c-1 1-2.6 1-3.5 0-1-1-1-2.6 0-3.5L46 101c-2.2-3-3.7-6.5-4.1-10.4h-3.2c-1.4 0-2.5-1.1-2.5-2.5s1.1-2.5 2.5-2.5h3.2c.5-4.1 2-7.8 4.4-10.8l-2.4-2.4c-1-1-1-2.6 0-3.5 1-1 2.6-1 3.5 0l2.4 2.4c3.1-2.5 7-4.2 11.2-4.7v-3.2c0-1.4 1.1-2.5 2.5-2.5S66 62 66 63.4v3.2c4.4.5 8.4 2.3 11.6 5l2.7-2.7c1-1 2.6-1 3.5 0 1 1 1 2.6 0 3.5L81 75.2c2.2 3 3.7 6.5 4.1 10.4h3.2c1.4 0 2.5 1.1 2.5 2.5s-1.1 2.5-2.5 2.5H85c-.5 4-2 7.6-4.3 10.6l2.7 2.7c1 1 1 2.6 0 3.5-1 1-2.6 1-3.5 0l-2.6-2.6c-3.2 2.6-7.1 4.4-11.4 4.9v3.3c.1 1.3-1.1 2.5-2.4 2.5zm0-44.1c-9.2 0-16.7 7.5-16.7 16.7s7.5 16.7 16.7 16.7 16.7-7.5 16.7-16.7-7.5-16.7-16.7-16.7zm0 27.3c-5.8 0-10.6-4.7-10.6-10.6s4.7-10.6 10.6-10.6S74 82.3 74 88.1s-4.7 10.6-10.5 10.6zm0-16.2c-3.1 0-5.6 2.5-5.6 5.6s2.5 5.6 5.6 5.6c3.1 0 5.6-2.5 5.6-5.6s-2.6-5.6-5.6-5.6zm87.1 14.9h-43.2c-1.4 0-2.5-1.1-2.5-2.5V81.3c0-1.4 1.1-2.5 2.5-2.5h43.2c1.4 0 2.5 1.1 2.5 2.5V95c0 1.3-1.1 2.4-2.5 2.4zm-40.7-5h38.2v-8.7h-38.2v8.7z"/></symbol><symbol viewBox="0 0 53 53" id="search" xmlns="http://www.w3.org/2000/svg"><path d="M51.7 51.3L36.8 35.8C40.6 32 43 26.8 43 21 43 9.4 33.6 0 22 0S1 9.4 1 21s9.4 21 21 21c5.1 0 9.7-1.8 13.4-4.8l14.9 15.5c.2.2.5.3.7.3.3 0 .5-.1.7-.3.4-.4.4-1 0-1.4zM22 40C11.5 40 3 31.5 3 21S11.5 2 22 2s19 8.5 19 19-8.5 19-19 19z"/></symbol><symbol viewBox="0 0 512 512" id="shipped" xmlns="http://www.w3.org/2000/svg"><path d="M476.158 231.363l-13.259-53.035c3.625-.77 6.345-3.986 6.345-7.839v-8.551c0-18.566-15.105-33.67-33.67-33.67h-60.392V110.63c0-9.136-7.432-16.568-16.568-16.568H50.772c-9.136 0-16.568 7.432-16.568 16.568V256a8.017 8.017 0 0016.034 0V110.63c0-.295.239-.534.534-.534h307.841c.295 0 .534.239.534.534v145.372a8.017 8.017 0 0016.034 0v-9.088h94.569l.021.002.022-.001c11.637.008 21.518 7.646 24.912 18.171h-24.928a8.017 8.017 0 00-8.017 8.017v17.102c0 13.851 11.268 25.119 25.119 25.119h9.086v35.273h-20.962c-6.886-19.883-25.787-34.205-47.982-34.205s-41.097 14.322-47.982 34.205h-3.86v-60.393a8.017 8.017 0 00-16.034 0v60.391H192.817c-6.886-19.883-25.787-34.205-47.982-34.205s-41.097 14.322-47.982 34.205H50.772a.534.534 0 01-.534-.534v-17.637h34.739a8.017 8.017 0 000-16.034H8.017a8.017 8.017 0 000 16.034h26.188v17.637c0 9.136 7.432 16.568 16.568 16.568h43.304c-.002.178-.014.355-.014.534 0 27.996 22.777 50.772 50.772 50.772s50.772-22.776 50.772-50.772c0-.18-.012-.356-.014-.534h180.67c-.002.178-.014.355-.014.534 0 27.996 22.777 50.772 50.772 50.772 27.995 0 50.772-22.776 50.772-50.772 0-.18-.012-.356-.014-.534h26.203a8.017 8.017 0 008.017-8.017v-85.511c.001-21.112-15.576-38.653-35.841-41.738zm-100.976-87.062h60.392c9.725 0 17.637 7.912 17.637 17.637v.534h-78.029v-18.171zm0 86.58v-52.376h71.235l13.094 52.376h-84.329zM144.835 401.904c-19.155 0-34.739-15.583-34.739-34.739s15.584-34.739 34.739-34.739c19.155 0 34.739 15.583 34.739 34.739s-15.584 34.739-34.739 34.739zm282.188 0c-19.155 0-34.739-15.583-34.739-34.739s15.584-34.739 34.739-34.739c19.155 0 34.739 15.583 34.739 34.739s-15.584 34.739-34.739 34.739zm68.944-102.614h-9.086c-5.01 0-9.086-4.076-9.086-9.086v-9.086h18.171v18.172z"/><path d="M144.835 350.597c-9.136 0-16.568 7.432-16.568 16.568 0 9.136 7.432 16.568 16.568 16.568 9.136 0 16.568-7.432 16.568-16.568 0-9.136-7.432-16.568-16.568-16.568zm282.188 0c-9.136 0-16.568 7.432-16.568 16.568 0 9.136 7.432 16.568 16.568 16.568 9.136 0 16.568-7.432 16.568-16.568 0-9.136-7.432-16.568-16.568-16.568zm-94.063-34.204H213.244a8.017 8.017 0 000 16.034H332.96a8.017 8.017 0 000-16.034zm-205.227-34.205H25.119a8.017 8.017 0 000 16.034h102.614a8.017 8.017 0 000-16.034zM278.771 173.37a8.017 8.017 0 00-11.337.001l-71.292 71.291-37.087-37.087a8.016 8.016 0 00-11.337 0 8.016 8.016 0 000 11.337l42.756 42.756c1.565 1.566 3.617 2.348 5.668 2.348s4.104-.782 5.668-2.348l76.96-76.96a8.018 8.018 0 00.001-11.338z"/></symbol><symbol viewBox="0 0 402 402" id="tel" xmlns="http://www.w3.org/2000/svg"><path d="M401.1 311.5c-1.1-3.4-8.4-8.5-21.7-15.1-3.6-2.1-8.8-4.9-15.4-8.6-6.7-3.6-12.7-7-18.1-10-5.4-3-10.5-6-15.3-8.8-.8-.6-3.1-2.2-7.1-5-4-2.8-7.4-4.8-10.1-6.1-2.8-1.3-5.5-2-8.1-2-3.8 0-8.6 2.7-14.3 8.1-5.7 5.4-10.9 11.3-15.7 17.7-4.8 6.4-9.8 12.3-15.1 17.7-5.3 5.4-9.7 8.1-13.1 8.1-1.7 0-3.9-.5-6.4-1.4-2.6-1-4.5-1.8-5.9-2.4-1.3-.7-3.6-2-6.8-4-3.2-2-5-3.1-5.4-3.3-26.1-14.5-48.4-31-67.1-49.7-18.6-18.7-35.2-41-49.7-67.1-.2-.4-1.3-2.2-3.3-5.4-2-3.2-3.3-5.5-4-6.9-.7-1.3-1.5-3.3-2.4-5.9s-1.4-4.7-1.4-6.4c0-3.4 2.7-7.8 8.1-13.1 5.4-5.3 11.3-10.4 17.7-15.1 6.4-4.8 12.3-10 17.7-15.7 5.4-5.7 8.1-10.5 8.1-14.3 0-2.7-.7-5.4-2-8.1-1.3-2.8-3.4-6.1-6.1-10.1-2.8-4-4.4-6.4-5-7.1-2.9-4.8-5.8-9.8-8.8-15.3-3-5.4-6.4-11.5-10-18.1-3.6-6.7-6.5-11.8-8.6-15.4C99 9.2 93.9 2 90.5.9c-1.3-.6-3.3-.9-6-.9-5.1 0-11.8.9-20.1 2.9-8.3 1.9-14.8 3.9-19.6 6-9.5 4-19.6 15.6-30.3 34.8C4.9 61.6 0 79.3 0 96.8c0 5.1.3 10.1 1 15s1.9 10.3 3.6 16.4c1.7 6.1 3.1 10.6 4.1 13.6 1 2.9 3 8.2 5.9 15.8 2.9 7.6 4.6 12.3 5.1 14 6.7 18.7 14.6 35.3 23.7 50 15 24.4 35.5 49.5 61.5 75.5s51.2 46.5 75.5 61.5c14.7 9.1 31.3 17 50 23.7 1.7.6 6.4 2.3 14 5.1 7.6 2.9 12.9 4.8 15.8 5.9 2.9 1 7.5 2.4 13.6 4.1 6.1 1.7 11.6 2.9 16.4 3.6 4.9.7 9.9 1 15 1 17.5 0 35.2-4.9 53.1-14.6 19.2-10.7 30.8-20.7 34.8-30.3 2.1-4.8 4.1-11.3 6-19.6 1.9-8.3 2.9-15 2.9-20.1 0-2.6-.3-4.6-.9-5.9z"/></symbol><symbol viewBox="0 0 24 24" id="telegram" xmlns="http://www.w3.org/2000/svg"><path d="M12.6 17.4c-.9.9-1.8 1.6-2.6 2.5-.3.3-.6.5-1.1.5-.3 0-.4-.1-.6-.4-.7-2-1.3-4.1-1.9-6.1-.1-.2-.2-.3-.3-.4-1.6-.5-3.1-1-4.6-1.5-.3-.1-.5-.1-.7-.3-.3-.2-.3-.6-.1-.8s.6-.4.9-.6c1.9-.8 3.8-1.4 5.7-2.2l14.4-5.6c.9-.3 1.6.2 1.5 1.2 0 .7-.2 1.3-.4 1.8-1 4.9-2.1 9.8-3.1 14.7-.3 1.1-1 1.5-2 .8-1.6-1.2-3.2-2.4-4.8-3.5-.2 0-.2-.1-.3-.1zM9 18.9c.1 0 .1-.1.1-.1.1-1.1.2-2.2.3-3.4 0-.3.1-.4.3-.6 1.5-1.3 2.9-2.6 4.4-4 1.6-1.4 3.3-2.9 4.9-4.4 0-.1.1-.3.2-.3-.2-.1-.3-.2-.5-.1s-.4.2-.5.3C14.6 8.5 11 10.8 7.4 13c-.2.1-.3.3-.2.4.3.8.5 1.6.8 2.4.3 1 .6 2 1 3.1z"/></symbol><symbol viewBox="0 0 480.56 480.56" id="telephone" xmlns="http://www.w3.org/2000/svg"><path d="M365.354 317.9c-15.7-15.5-35.3-15.5-50.9 0-11.9 11.8-23.8 23.6-35.5 35.6-3.2 3.3-5.9 4-9.8 1.8-7.7-4.2-15.9-7.6-23.3-12.2-34.5-21.7-63.4-49.6-89-81-12.7-15.6-24-32.3-31.9-51.1-1.6-3.8-1.3-6.3 1.8-9.4 11.9-11.5 23.5-23.3 35.2-35.1 16.3-16.4 16.3-35.6-.1-52.1-9.3-9.4-18.6-18.6-27.9-28-9.6-9.6-19.1-19.3-28.8-28.8-15.7-15.3-35.3-15.3-50.9.1-12 11.8-23.5 23.9-35.7 35.5-11.3 10.7-17 23.8-18.2 39.1-1.9 24.9 4.2 48.4 12.8 71.3 17.6 47.4 44.4 89.5 76.9 128.1 43.9 52.2 96.3 93.5 157.6 123.3 27.6 13.4 56.2 23.7 87.3 25.4 21.4 1.2 40-4.2 54.9-20.9 10.2-11.4 21.7-21.8 32.5-32.7 16-16.2 16.1-35.8.2-51.8-19-19.1-38.1-38.1-57.2-57.1zm-19.1-79.7l36.9-6.3c-5.8-33.9-21.8-64.6-46.1-89-25.7-25.7-58.2-41.9-94-46.9l-5.2 37.1c27.7 3.9 52.9 16.4 72.8 36.3 18.8 18.8 31.1 42.6 35.6 68.8zm57.7-160.4c-42.6-42.6-96.5-69.5-156-77.8l-5.2 37.1c51.4 7.2 98 30.5 134.8 67.2 34.9 34.9 57.8 79 66.1 127.5l36.9-6.3c-9.7-56.2-36.2-107.2-76.6-147.7z"/></symbol><symbol viewBox="0 -34 500 500" id="vault" xmlns="http://www.w3.org/2000/svg"><path d="M462.488 0H37.512C16.559 0 0 17.2 0 38.156v318.375C0 377.484 16.559 395 37.512 395H53v28.844A8.354 8.354 0 0061.25 432h97.5a8.354 8.354 0 008.25-8.156V395h166v28.844a8.354 8.354 0 008.25 8.156h97.5a8.354 8.354 0 008.25-8.156V395h15.488C483.441 395 500 377.484 500 356.531V38.156C500 17.2 483.441 0 462.488 0zM151 416H69v-21h82zm280 0h-82v-21h82zm53-59.469c0 12.13-9.383 22.469-21.512 22.469H37.512C25.382 379 16 368.66 16 356.531V38.156C16 26.023 25.383 16 37.512 16h424.976C474.618 16 484 26.023 484 38.156zm0 0"/><path d="M452.488 60H68.57C64.152 60 61 63.8 61 68.215v258.258a7.26 7.26 0 002.133 5.425A7.255 7.255 0 0068.57 334h383.918a7.195 7.195 0 005.414-2.11 7.194 7.194 0 002.098-5.417V68.215C460 63.8 456.906 60 452.488 60zM444 158h-44v-43h44zM77 318V76h367v23h-51.758a8.54 8.54 0 00-8.242 8.375v58.32a8.478 8.478 0 008.242 8.305H444v47h-51.758a8.205 8.205 0 00-8.242 7.992v58.32c0 4.418 3.824 7.688 8.242 7.688H444v23zm367-39h-44v-42h44zm0 0"/><path d="M235.36 141.48c-3.122-3.12-8.188-3.12-11.313 0l-14.29 14.29c-18.198-12.977-42.69-12.739-60.632.59l-14.172-14.173a8.002 8.002 0 00-11.23.083 7.998 7.998 0 00-.082 11.23l14.289 14.29c-12.766 17.894-12.766 41.917 0 59.808l-14.29 14.293a7.997 7.997 0 00.032 11.277 8.006 8.006 0 0011.281.035l14.172-14.172c17.941 13.328 42.434 13.567 60.633.59l13.582 13.582a8.011 8.011 0 007.746 2.11 7.995 7.995 0 005.676-5.676 7.993 7.993 0 00-2.11-7.746l-13.464-13.47c13.554-18.241 13.554-43.21 0-61.456l14.171-14.164a8 8 0 000-11.32zm-80.606 81.32c-13.676-13.671-13.895-35.773-.496-49.71 13.402-13.942 35.496-14.59 49.691-1.461 14.2 13.125 15.278 35.203 2.43 49.652a7.947 7.947 0 00-3.574 3.492c-14.09 11.95-34.993 11.094-48.051-1.972zm0 0"/></symbol><symbol id="viber" viewBox="0 0 40 40" xml:space="preserve" xmlns="http://www.w3.org/2000/svg"><style>.azst1{fill:#665cac}</style><defs><path id="azSVGID_1_" d="M0 0h40v40H0z"/></defs><clipPath id="azSVGID_2_"><use xlink:href="#azSVGID_1_" overflow="visible"/></clipPath><g clip-path="url(#azSVGID_2_)"><path class="azst1" d="M35.6 3.9C34.5 3 30.4.1 21.2 0c0 0-10.9-.6-16.2 4.1C2 7 1 11.2.9 16.4.8 21.6.6 31.3 10.3 34v4s-.1 1.6 1 2c1.3.4 2.1-.8 3.4-2.2.7-.7 1.7-1.8 2.4-2.6 6.6.5 11.7-.7 12.3-.9 1.3-.4 8.9-1.4 10.1-11.1 1.4-10.1-.5-16.4-3.9-19.3zm1.1 18.5c-1 8.1-7.2 8.6-8.3 9-.5.1-5 1.2-10.6.9 0 0-4.2 4.9-5.5 6.2-.2.2-.4.3-.6.2-.2-.1-.3-.3-.3-.7v-6.7c-8.2-2.2-7.7-10.5-7.6-14.8s1-7.9 3.5-10.3C11.7 2.3 21 2.9 21 2.9c7.8 0 11.6 2.3 12.4 3.1 2.9 2.3 4.4 8 3.3 16.4z"/><path class="azst1" d="M25 16.6c-.3 0-.5-.2-.5-.5-.1-1.7-.9-2.6-2.6-2.6-.3 0-.5-.2-.5-.5s.3-.5.6-.5c2.3.1 3.5 1.4 3.6 3.6-.1.3-.3.5-.6.5z"/><path class="azst1" d="M27.6 17.5c-.3 0-.5-.2-.5-.5 0-1.7-.5-3.1-1.6-4.3-1.1-1.2-2.6-1.8-4.6-1.9-.3 0-.5-.3-.5-.5 0-.3.3-.5.6-.5 2.2.1 4 .9 5.3 2.2 1.3 1.3 1.9 3 1.8 5 .1.3-.2.5-.5.5z"/><path class="azst1" d="M30.4 18.6c-.3 0-.5-.2-.5-.5 0-3.1-1-5.5-2.8-7.2-1.8-1.7-4.2-2.6-6.9-2.7-.3 0-.5-.2-.5-.5s.2-.5.5-.5c3 0 5.6 1 7.7 2.9C30 12 31 14.7 31 18c-.1.3-.3.5-.6.6zM22 22.9s.7.1 1.1-.4l.8-.9c.4-.5 1.3-.8 2.1-.3.5.3 1.4.8 1.9 1.2.6.4 1.8 1.4 1.8 1.4.6.5.7 1.1.3 1.9-.4.7-1 1.4-1.6 1.9-.6.4-1.1.7-1.6.8h-.2c-.2 0-.5 0-.7-.1-.8-.2-2.2-.8-4.5-2-1.3-.7-2.6-1.5-3.8-2.4-.6-.4-1.1-.9-1.7-1.5l-.1-.1-.1-.1-.1-.1-.1-.1c-.5-.5-1-1.1-1.5-1.6-.9-1.1-1.8-2.4-2.5-3.6-1.3-2.2-1.8-3.5-2.1-4.3-.1-.2-.1-.4-.1-.7v-.2c.1-.5.3-1 .8-1.6.6-.6 1.2-1.2 2-1.6.7-.4 1.4-.2 1.9.3 0 0 1 1.2 1.4 1.7.4.5.9 1.4 1.2 1.9.5.9.2 1.7-.3 2.1l-1 .7c-.5.4-.4 1.1-.4 1.1s1.7 5.3 7.1 6.6z"/></g></symbol><symbol viewBox="0 0 532.3 532.3" id="vk" xmlns="http://www.w3.org/2000/svg"><path d="M472 241.3c7.6-9.8 13.6-17.6 18-23.6 32-42.5 45.8-69.6 41.6-81.5l-1.7-2.8c-1.1-1.7-4-3.2-8.6-4.6-4.6-1.4-10.5-1.6-17.7-.7l-79.8.6c-1.8-.2-3.7-.1-5.5.1-1.8.3-3 .6-3.6.8l-1.4.7-1.1.8c-.9.6-1.9 1.5-3 2.9s-2 3-2.8 4.9c-8.7 22.4-18.6 43.1-29.7 62.4-6.8 11.5-13.1 21.4-18.8 29.8-5.7 8.4-10.5 14.6-14.4 18.6-3.9 4-7.4 7.2-10.5 9.6-3.1 2.4-5.5 3.4-7.2 3.1-1.7-.4-3.2-.7-4.7-1.1-2.6-1.7-4.7-3.9-6.2-6.8-1.6-2.9-2.6-6.5-3.2-10.8-.6-4.3-.9-8.1-1-11.2-.1-3.1 0-7.6.1-13.3.2-5.7.3-9.6.3-11.6 0-7 .1-14.6.4-22.9.3-8.2.5-14.7.7-19.5.2-4.8.3-9.9.3-15.2 0-5.3-.3-9.6-1-12.6-.6-3-1.6-6-2.9-8.9-1.3-2.9-3.2-5.1-5.7-6.6-2.5-1.6-5.6-2.8-9.3-3.7-9.8-2.2-22.3-3.4-37.4-3.6-34.4-.4-56.5 1.9-66.2 6.7-3.9 2-7.4 4.8-10.5 8.3-3.3 4.1-3.8 6.3-1.4 6.6 11.1 1.7 18.9 5.6 23.6 11.9l1.7 3.3c1.3 2.4 2.6 6.7 3.9 12.8 1.3 6.1 2.1 12.8 2.5 20.2.9 13.5.9 25 0 34.6-.9 9.6-1.8 17.1-2.6 22.4-.8 5.4-2.1 9.7-3.7 13-1.7 3.3-2.8 5.4-3.3 6.1-.6.7-1 1.2-1.4 1.4-2.4.9-4.9 1.4-7.5 1.4-2.6 0-5.7-1.3-9.4-3.9-3.7-2.6-7.5-6.1-11.5-10.7-4-4.5-8.5-10.9-13.4-19-5-8.1-10.2-17.7-15.5-28.8l-4.4-8c-2.8-5.2-6.6-12.7-11.4-22.6s-9.1-19.4-12.7-28.7c-1.5-3.9-3.7-6.8-6.7-8.9l-1.4-.8c-.9-.7-2.4-1.5-4.4-2.4-2-.8-4.2-1.4-6.4-1.8l-75.9.6c-7.8 0-13 1.8-15.8 5.3l-1.1 1.7c-.6.9-.8 2.4-.8 4.4 0 2 .6 4.5 1.7 7.5 11.1 26.1 23.1 51.2 36.2 75.4 13 24.2 24.3 43.7 34 58.5 9.6 14.8 19.4 28.7 29.4 41.9s16.6 21.5 19.8 25.2c3.2 3.7 5.8 6.5 7.6 8.3l6.9 6.7c4.4 4.4 10.9 9.7 19.5 15.9 8.6 6.2 18.1 12.3 28.6 18.3 10.4 6 22.6 10.9 36.4 14.7 13.9 3.8 27.3 5.3 40.5 4.6H293c6.5-.6 11.4-2.6 14.7-6.1l1.1-1.4c.7-1.1 1.4-2.8 2.1-5.1.6-2.3 1-4.9 1-7.6-.2-7.9.4-15.1 1.8-21.5s3-11.2 4.7-14.4c1.8-3.2 3.7-6 6-8.2 2.2-2.2 3.8-3.5 4.7-4 .9-.5 1.7-.8 2.2-1 4.4-1.5 9.6 0 15.7 4.3 6 4.4 11.6 9.7 16.9 16.1 5.3 6.4 11.6 13.5 19 21.5 7.4 7.9 13.9 13.9 19.4 17.7l5.5 3.3c3.7 2.2 8.5 4.2 14.4 6.1 5.9 1.8 11.1 2.3 15.5 1.4l71-1.1c7 0 12.5-1.1 16.4-3.5 3.9-2.3 6.2-4.9 6.9-7.6.7-2.8.8-5.9.1-9.4-.6-3.5-1.3-6-1.9-7.3-.6-1.4-1.3-2.5-1.8-3.5-9.2-16.6-26.9-37.1-52.9-61.3l-.6-.6-.3-.3-.3-.3h-.3c-11.8-11.3-19.3-18.9-22.4-22.7-5.7-7.4-7-14.9-3.9-22.4 1.6-5.9 9.9-18 24.3-36.5z"/></symbol><symbol viewBox="0 0 40 40" id="whatsapp" xmlns="http://www.w3.org/2000/svg"><path d="M20.4 38.9c-3.5 0-6.6-.8-9.5-2.4L0 40l3.5-10.5C1.7 26.6.7 23.1.7 19.4.7 8.6 9.5 0 20.4 0 31.2 0 40 8.6 40 19.5c0 10.8-8.8 19.4-19.6 19.4zm0-35.8c-9 0-16.5 7.3-16.5 16.3C3.9 23 5.1 26.2 7 29l-2 6.1 6.4-2c2.6 1.7 5.8 2.8 9 2.8 9.2 0 16.5-7.3 16.5-16.3S29.5 3.1 20.4 3.1zm10 20.8c-.1-.2-.5-.4-1-.6-.5-.2-2.9-1.4-3.3-1.6-.5-.1-.8-.1-1.1.4-.4.5-1.2 1.6-1.6 1.9-.2.4-.6.4-1.1.1s-2-.7-3.9-2.4c-1.4-1.3-2.4-2.8-2.6-3.2-.2-.5 0-.7.2-1 .2-.2.5-.6.7-.8.2-.2.4-.5.5-.8.1-.4.1-.6 0-.8-.1-.2-1.1-2.6-1.4-3.5-.4-1-.8-.8-1.1-.8h-1c-.4 0-.8.1-1.3.6-.5.4-1.7 1.6-1.7 3.8 0 2.4 1.7 4.6 1.9 4.9s3.4 5.3 8.2 7.2c4.9 1.9 4.9 1.3 5.8 1.2.8-.1 2.9-1.2 3.3-2.3.6-1.1.6-2.1.5-2.3z"/></symbol><symbol viewBox="0 0 58 58" id="whatsapp2" xmlns="http://www.w3.org/2000/svg"><path d="M0 58l5-15c-2.5-4.3-4-9.2-4-14.5C1 12.8 13.8 0 29.5 0S58 12.8 58 28.5 45.2 57 29.5 57c-4.8 0-9.3-1.2-13.3-3.3L0 58z"/><path d="M47.7 38c-1.3-2.5-6.2-5.3-6.2-5.3-1.1-.6-2.4-.7-3 .4 0 0-1.6 1.9-2 2.2-1.8 1.2-3.5 1.2-5.2-.5l-4-4-4-4c-1.7-1.7-1.8-3.4-.5-5.2.3-.4 2.2-2 2.2-2 1.1-.6 1-2 .4-3 0 0-2.8-4.9-5.3-6.2-1.1-.6-2.4-.4-3.2.5l-1.8 1.8c-5.6 5.6-2.8 11.9 2.7 17.5l5.1 5.1 5.1 5.1c5.6 5.6 11.9 8.3 17.5 2.7l1.8-1.8c.7-1 .9-2.3.4-3.3z"/></symbol><symbol viewBox="-17 -17 532 532.001" id="zoom-in" xmlns="http://www.w3.org/2000/svg"><path d="M391.54 374.117c78.862-88.047 76.015-223.879-8.571-308.46-86.516-86.434-226.313-87.688-314.364-2.813-88.054 84.87-91.94 224.62-8.742 314.254 83.2 89.636 222.852 96.156 314.035 14.66l103.38 103.379c4.878 4.836 12.745 4.816 17.6-.04 4.856-4.855 4.876-12.722.04-17.6zm-308.462-8.57c-78.3-77.578-78.89-203.942-1.316-282.25 77.578-78.3 203.945-78.89 282.25-1.317l1.316 1.317c77.817 77.816 77.817 204.43 0 282.25-77.82 77.82-204.437 77.816-282.25 0zm0 0"/><path d="M299.035 211.922h-62.387V149.59c0-6.887-5.582-12.473-12.472-12.473-6.883 0-12.473 5.586-12.473 12.473v62.332h-62.336c-6.883 0-12.472 5.59-12.472 12.473 0 6.89 5.59 12.472 12.472 12.472h62.336v62.39c0 6.888 5.59 12.473 12.473 12.473 6.89 0 12.472-5.585 12.472-12.472v-62.39h62.387c6.89 0 12.473-5.583 12.473-12.473 0-6.883-5.582-12.473-12.473-12.473zm0 0"/></symbol></svg>