<svg xmlns="http://www.w3.org/2000/svg" viewBox="0 0 64.34 64.1"><defs><style>.cls-1,.cls-3{fill:#fff;}.cls-1{stroke:#fff;stroke-miterlimit:10;}.cls-2{fill:#2cb742;}</style></defs><title>whatsapp2</title><g id="Слой_2" data-name="Слой 2"><g id="Capa_1" data-name="Capa 1"><path class="cls-1" d="M6.66,45.71A30.42,30.42,0,1,1,19.81,58.33l-19,5.05Z"/><path class="cls-2" d="M3.3,60.94l5-15a28.43,28.43,0,1,1,11.2,10.7Z"/><path class="cls-3" d="M51,40.94c-1.3-2.5-6.2-5.3-6.2-5.3-1.1-.6-2.4-.7-3,.4,0,0-1.6,1.9-2,2.2a3.68,3.68,0,0,1-5.2-.5l-4-4-4-4c-1.7-1.7-1.8-3.4-.5-5.2.3-.4,2.2-2,2.2-2,1.1-.6,1-2,.4-3,0,0-2.8-4.9-5.3-6.2a2.57,2.57,0,0,0-3.2.5l-1.8,1.8c-5.6,5.6-2.8,11.9,2.7,17.5l5.1,5.1,5.1,5.1c5.6,5.6,11.9,8.3,17.5,2.7l1.8-1.8A3.31,3.31,0,0,0,51,40.94Z"/></g></g></svg>