<?xml version="1.0" encoding="utf-8"?>
<!-- Generator: Adobe Illustrator 23.0.2, SVG Export Plug-In . SVG Version: 6.00 Build 0)  -->
<svg version="1.1" id="Слой_1" xmlns="http://www.w3.org/2000/svg" xmlns:xlink="http://www.w3.org/1999/xlink" x="0px" y="0px"
	 viewBox="0 0 640 640" style="enable-background:new 0 0 640 640;" xml:space="preserve">
<g id="surface1">
	<path d="M629.3,373.3h-32.7L576,73.9c-0.4-5.6-5-9.9-10.7-9.9h-64c-5.6,0-10.3,4.3-10.7,9.9L470,373.3h-22v-64
		c0-5.9-4.8-10.7-10.7-10.7c-2.4,0-4.8,0.8-6.7,2.3l-89.3,71.5v-63.1c0-5.9-4.8-10.7-10.7-10.7c-2.4,0-4.8,0.8-6.7,2.3l-89.3,71.5
		v-63.1c0-5.9-4.8-10.7-10.7-10.7c-2.4,0-4.8,0.8-6.7,2.3L128,372.5v-63.1c0-5.9-4.8-10.7-10.7-10.7c-1.9,0-3.8,0.5-5.5,1.5
		l-106.7,64C2,366.1,0,369.6,0,373.3v256c0,5.9,4.8,10.7,10.7,10.7h618.7c5.9,0,10.7-4.8,10.7-10.7V384
		C640,378.1,635.2,373.3,629.3,373.3z M511.3,85.3h44.1l19.9,288h-83.8L511.3,85.3z M362.7,618.7v-128h64v128H362.7z M618.7,618.7
		H448V480c0-5.9-4.8-10.7-10.7-10.7H352c-5.9,0-10.7,4.8-10.7,10.7v138.7h-320V379.4l85.3-51.2v66.5c0,5.9,4.8,10.7,10.7,10.7
		c2.4,0,4.8-0.8,6.7-2.3l89.3-71.5v63.1c0,5.9,4.8,10.7,10.7,10.7c2.4,0,4.8-0.8,6.7-2.3l89.3-71.5v63.1c0,5.9,4.8,10.7,10.7,10.7
		c2.4,0,4.8-0.8,6.7-2.3l89.3-71.5V384c0,5.9,4.8,10.7,10.7,10.7h181.3L618.7,618.7L618.7,618.7z"/>
	<path d="M362.6,21.3c3.9,2.1,7.4,4.8,10.4,8c6,7.3,14.5,12,23.8,13.3c9.8-1.3,18.8-6.2,25.1-13.9c2.7-2.8,5.7-5.3,9-7.5
		c2.2,0.1,7.9,5.5,11,8.4c5.8,7.1,14,11.8,23.1,13c10.5-1.3,20.1-6.6,26.8-14.7c2.6-2.5,6.6-6.2,7.3-6.6c5.7,0,7,1.9,10.6,7
		c4.6,8.7,13.7,14.3,23.6,14.4c5.9,0,10.7-4.8,10.7-10.7c0-5.9-4.8-10.7-10.7-10.7c-2.1,0-2.6-0.1-6-5.2C521.7,6,510.8-0.2,499.2,0
		c-8.6,1.2-16.5,5.6-21.9,12.4c-3.5,3.3-9.5,8.9-11.7,9c-3.3-2-6.3-4.4-9-7.2C450.1,6.3,441,1.3,430.9,0c-9.2,1.3-17.7,6-23.6,13.2
		c-3,3.2-6.4,6-10.3,8.2c-3.6-2-6.8-4.6-9.6-7.6C381.3,6.2,372.4,1.3,362.7,0C356.8,0,352,4.7,352,10.6
		C351.9,16.5,356.7,21.3,362.6,21.3z"/>
	<path d="M117.3,490.7H74.7c-5.9,0-10.7,4.8-10.7,10.7v64c0,5.9,4.8,10.7,10.7,10.7h42.7c5.9,0,10.7-4.8,10.7-10.7v-64
		C128,495.4,123.2,490.7,117.3,490.7z M106.7,554.7H85.3V512h21.3V554.7z"/>
	<path d="M202.7,490.7H160c-5.9,0-10.7,4.8-10.7,10.7v64c0,5.9,4.8,10.7,10.7,10.7h42.7c5.9,0,10.7-4.8,10.7-10.7v-64
		C213.3,495.4,208.6,490.7,202.7,490.7z M192,554.7h-21.3V512H192V554.7z"/>
	<path d="M288,490.7h-42.7c-5.9,0-10.7,4.8-10.7,10.7v64c0,5.9,4.8,10.7,10.7,10.7H288c5.9,0,10.7-4.8,10.7-10.7v-64
		C298.7,495.4,293.9,490.7,288,490.7z M277.3,554.7H256V512h21.3V554.7z"/>
</g>
</svg>
