<svg xmlns="http://www.w3.org/2000/svg" width="19" height="15" viewBox="0 0 19 15"><g><g><path fill="#424242" d="M19 3.168v9.667c0 1.262-1.042 2.29-2.324 2.29H2.323C1.042 15.124 0 14.096 0 12.834V3.164C0 1.9 1.042.874 2.323.874H16.68c1.282 0 2.324 1.03 2.32 2.294zm-1.062 9.667V3.168c0-.686-.566-1.244-1.262-1.244H2.323c-.696 0-1.262.558-1.262 1.244v9.667c0 .684.566 1.243 1.262 1.243H16.68c.696 0 1.262-.559 1.262-1.243zm-1.29-.59a.52.52 0 0 1 .02.74.532.532 0 0 1-.385.163.531.531 0 0 1-.366-.143L11.192 8.58 9.867 9.75a.541.541 0 0 1-.708.005L7.87 8.619 3.117 13a.532.532 0 0 1-.361.138.546.546 0 0 1-.39-.165.52.52 0 0 1 .024-.74l4.682-4.32L2.37 3.772a.518.518 0 0 1-.043-.74.536.536 0 0 1 .75-.042l5.088 4.486c.031.023.059.046.086.073 0 .004.004.008.008.013l1.25 1.1 6.408-5.669a.54.54 0 0 1 .751.039.521.521 0 0 1-.039.74l-4.647 4.106z"/><path fill="#adafb3" d="M19 3.168v9.667c0 1.262-1.042 2.29-2.324 2.29H2.323C1.042 15.124 0 14.096 0 12.834V3.164C0 1.9 1.042.874 2.323.874H16.68c1.282 0 2.324 1.03 2.32 2.294zm-1.062 9.667V3.168c0-.686-.566-1.244-1.262-1.244H2.323c-.696 0-1.262.558-1.262 1.244v9.667c0 .684.566 1.243 1.262 1.243H16.68c.696 0 1.262-.559 1.262-1.243zm-1.29-.59a.52.52 0 0 1 .02.74.532.532 0 0 1-.385.163.531.531 0 0 1-.366-.143L11.192 8.58 9.867 9.75a.541.541 0 0 1-.708.005L7.87 8.619 3.117 13a.532.532 0 0 1-.361.138.546.546 0 0 1-.39-.165.52.52 0 0 1 .024-.74l4.682-4.32L2.37 3.772a.518.518 0 0 1-.043-.74.536.536 0 0 1 .75-.042l5.088 4.486c.031.023.059.046.086.073 0 .004.004.008.008.013l1.25 1.1 6.408-5.669a.54.54 0 0 1 .751.039.521.521 0 0 1-.039.74l-4.647 4.106z"/></g></g></svg>