<?xml version="1.0" encoding="utf-8"?>
<!-- Generator: Adobe Illustrator 23.0.2, SVG Export Plug-In . SVG Version: 6.00 Build 0)  -->
<svg version="1.1" id="Слой_1" xmlns="http://www.w3.org/2000/svg" xmlns:xlink="http://www.w3.org/1999/xlink" x="0px" y="0px"
	 viewBox="0 0 457 457" style="enable-background:new 0 0 457 457;" xml:space="preserve">
<path d="M338,221.1c0-7.5-3.4-14.5-9.3-19.2c6.2-7.3,7.6-17.5,3.6-26.1c-4-8.7-12.7-14.2-22.2-14.2h-54.5l2.2-6
	c3.5-9.3,5.3-19.2,5.3-29.2v-0.9c0-7.6-3.1-14.8-8.5-20.1c-5.4-5.3-12.8-8.1-20.4-7.9c-15.3,0.8-27.3,13.6-27.2,28.9
	c0,7.3-10.2,24-18.5,35.1h-61.4c-3.9,0-7,3.1-7,7v140.1c0,3.9,3.1,7,7,7h171.9c8.8,0,17-4.8,21.3-12.5c4.3-7.7,4.2-17.1-0.4-24.7
	c7-3.1,12.2-9.4,13.9-16.9c1.7-7.5-0.2-15.4-5.2-21.3C334.6,235.6,338,228.6,338,221.1z M134.2,175.6h50.9v126.1h-50.9V175.6z
	 M313.5,231.6H310c-3.9,0-7,3.1-7,7c0,3.9,3.1,7,7,7c5.8,0,10.5,4.7,10.5,10.5c0,5.8-4.7,10.5-10.5,10.5h-11c-3.9,0-7,3.1-7,7
	c0,3.9,3.1,7,7,7c5.8,0,10.5,4.7,10.5,10.5c0,5.8-4.7,10.5-10.5,10.5H199V171c5.9-7.8,22-30.5,22-44.5c-0.2-7.8,5.8-14.4,13.6-14.9
	c3.8-0.1,7.5,1.3,10.2,4c2.7,2.6,4.3,6.3,4.3,10.1v0.9c0,8.3-1.5,16.5-4.4,24.2l-5.8,15.4c-0.8,2.2-0.5,4.6,0.8,6.5
	c1.3,1.9,3.5,3,5.8,3H310c5.8,0,10.5,4.7,10.5,10.5c0,5.8-4.7,10.5-10.5,10.5c-3.9,0-7,3.1-7,7c0,3.9,3.1,7,7,7h3.4
	c5.8,0,10.5,4.7,10.5,10.5S319.3,231.6,313.5,231.6L313.5,231.6z M154.8,261.1c-10.1,0-18.2,8.2-18.2,18.2
	c0,10.1,8.1,18.2,18.2,18.2c10.1,0,18.2-8.1,18.2-18.2C173,269.2,164.8,261.1,154.8,261.1z M154.8,283.5c-2.3,0-4.2-1.9-4.2-4.2
	c0-2.3,1.9-4.2,4.2-4.2c2.3,0,4.2,1.9,4.2,4.2S157.1,283.5,154.8,283.5z M446,211.8c6.5-10.1,8.6-22.5,5.9-34.2
	c-2.7-11.7-9.9-21.9-20.2-28.2c-10.2-6.4-15.8-18.1-14.5-30c1.4-11.9-2-24-9.5-33.4c-7.5-9.4-18.5-15.4-30.4-16.7
	c-12-1.3-22.1-9.4-26.1-20.8c-3.9-11.4-12.2-20.7-23-25.9c-10.8-5.2-23.3-5.9-34.7-1.8c-11.4,4-24,1.1-32.5-7.4
	c-8.5-8.6-20-13.4-32-13.4s-23.6,4.8-32,13.4c-8.5,8.5-21.1,11.4-32.5,7.4c-11.3-4-23.8-3.4-34.6,1.8c-10.8,5.2-19.1,14.6-23,25.9
	C103,59.9,92.8,68,80.8,69.3c-12,1.3-22.9,7.3-30.4,16.7c-7.5,9.4-10.9,21.4-9.5,33.4c1.4,12-4.2,23.6-14.5,30
	C16.2,155.8,9,165.9,6.3,177.7c-2.7,11.7-0.6,24,5.9,34.2c6.4,10.2,6.4,23.1,0,33.3c-6.5,10.2-8.6,22.5-5.9,34.2
	c2.7,11.7,9.9,21.9,20.2,28.2c10.2,6.4,15.8,18.1,14.5,30c-1.4,11.9,2,24,9.5,33.4c7.5,9.4,18.4,15.4,30.4,16.7
	c12,1.3,22.1,9.4,26,20.8c3.9,11.4,12.2,20.7,23,25.9c10.8,5.2,23.3,5.9,34.7,1.8c11.3-4,24-1.1,32.5,7.4c8.5,8.6,20,13.4,32,13.4
	s23.6-4.8,32-13.4c8.5-8.5,21.1-11.4,32.5-7.4c11.3,4,23.8,3.4,34.6-1.9c10.8-5.2,19.1-14.6,23-25.9c3.9-11.4,14.1-19.5,26.1-20.8
	c12-1.3,22.9-7.3,30.4-16.7c7.5-9.4,10.9-21.4,9.5-33.4c-1.4-12,4.2-23.6,14.5-30c10.2-6.3,17.5-16.5,20.2-28.2
	c2.7-11.7,0.6-24-5.9-34.2C439.5,235,439.5,222,446,211.8z M434.2,252.7c4.5,7,5.9,15.5,4.1,23.6c-1.8,8.1-6.8,15.1-13.9,19.5
	c-14.8,9.2-23,26.2-21,43.6c1,8.2-1.4,16.5-6.6,23s-12.7,10.6-21,11.5c-17.4,1.9-32.1,13.6-37.8,30.1c-2.7,7.8-8.4,14.3-15.9,17.9
	c-7.5,3.6-16.1,4.1-23.9,1.3c-16.5-5.8-34.8-1.6-47.1,10.8c-5.8,5.9-13.8,9.2-22.1,9.2c-8.3,0-16.2-3.3-22.1-9.2
	c-12.3-12.4-30.7-16.6-47.1-10.8c-7.8,2.8-16.4,2.3-23.9-1.3s-13.2-10-15.9-17.9c-5.7-16.5-20.4-28.2-37.8-30.1
	c-8.2-0.9-15.8-5-21-11.5s-7.5-14.8-6.6-23c2-17.4-6.1-34.3-21-43.6c-7-4.4-12.1-11.4-13.9-19.5c-1.8-8.1-0.4-16.6,4.1-23.6
	c9.3-14.8,9.3-33.6,0-48.3c-4.5-7-5.9-15.5-4.1-23.6c1.8-8.1,6.8-15.1,13.9-19.5c14.8-9.2,23-26.2,21-43.6c-1-8.2,1.4-16.5,6.6-23
	c5.2-6.5,12.7-10.6,21-11.5c17.4-1.9,32.1-13.6,37.8-30.1c2.7-7.8,8.4-14.3,15.9-17.9c7.5-3.6,16.1-4.1,23.9-1.3
	c16.5,5.8,34.8,1.6,47.1-10.8c5.8-5.9,13.8-9.2,22.1-9.2c8.3,0,16.2,3.3,22.1,9.2c12.3,12.4,30.7,16.6,47.1,10.8
	c7.8-2.8,16.4-2.3,23.9,1.3c7.5,3.6,13.2,10,15.9,17.9c5.7,16.5,20.4,28.2,37.8,30.1c8.2,0.9,15.8,5,21,11.5
	c5.2,6.5,7.5,14.8,6.6,23c-2,17.4,6.1,34.3,21,43.6c7,4.4,12.1,11.4,13.9,19.5c1.8,8.1,0.4,16.6-4.1,23.6
	C424.8,219.1,424.8,237.9,434.2,252.7z M229.1,58.3c-94,0-170.2,76.2-170.2,170.2s76.2,170.2,170.2,170.2
	c94,0,170.2-76.2,170.2-170.2C399.2,134.5,323.1,58.4,229.1,58.3z M229.1,384.7c-86.3,0-156.2-69.9-156.2-156.2
	S142.8,72.3,229.1,72.3c86.3,0,156.2,69.9,156.2,156.2C385.2,314.7,315.3,384.6,229.1,384.7L229.1,384.7z"/>
</svg>
