<?xml version="1.0"?>
<svg xmlns="http://www.w3.org/2000/svg" viewBox="0 0 512 512" width="512" height="512"><g id="Out_line" data-name="Out line"><path d="M488,16H456a8.00008,8.00008,0,0,0-8,8V48H376V24a8.00008,8.00008,0,0,0-8-8H336a8.00008,8.00008,0,0,0-8,8V48H64V24a8.00008,8.00008,0,0,0-8-8H24a8.00008,8.00008,0,0,0-8,8V488a8.00008,8.00008,0,0,0,8,8H56a8.00008,8.00008,0,0,0,8-8V464H328v24a8.00008,8.00008,0,0,0,8,8h32a8.00008,8.00008,0,0,0,8-8V464h72v24a8.00008,8.00008,0,0,0,8,8h32a8.00008,8.00008,0,0,0,8-8V24A8.00008,8.00008,0,0,0,488,16ZM48,480H32V32H48ZM328,64V80H64V64ZM208,320h32v32H208Zm-8,48h48v16H200Zm-8-16H144V320h48Zm-56,16h16v16H136Zm-8,32h32a8.00008,8.00008,0,0,0,8-8V368h16v48H104V368h16v24A8.00008,8.00008,0,0,0,128,400Zm72,0h48v16H200Zm64,0h32v16H264Zm40-16H264V360a8.00008,8.00008,0,0,0-8-8V312a8.00008,8.00008,0,0,0-8-8H136a8.00008,8.00008,0,0,0-8,8v40H96a8.00008,8.00008,0,0,0-8,8v56H64V280H328V416H312V392A8.00008,8.00008,0,0,0,304,384ZM64,264V248H328v16Zm72-112h16v16H136Zm-8,32h32a8.00008,8.00008,0,0,0,8-8V152h16v80H104V152h16v24A8.00008,8.00008,0,0,0,128,184Zm72-32h48v32H200Zm96,80H264V200h32Zm-96-32h48v32H200Zm112,32V192a8.00008,8.00008,0,0,0-8-8H264V144a8.00008,8.00008,0,0,0-8-8H96a8.00008,8.00008,0,0,0-8,8v88H64V96H328V232ZM64,448V432H328v16ZM360.18311,218.42285,451.67969,96.42676a16.04544,16.04544,0,0,1,12.1372,13.15039L372.32031,231.57324A16.04544,16.04544,0,0,1,360.18311,218.42285ZM376,170.667V96h56.00024ZM376,280h56.00024L376,354.667ZM360.18311,402.42285l91.49658-121.99609a16.04544,16.04544,0,0,1,12.1372,13.15039L372.32031,415.57324A16.04544,16.04544,0,0,1,360.18311,402.42285ZM448,341.333V416H391.99976ZM376,264V248h72v16Zm72-32H391.99976L448,157.333Zm0-168V80H376V64ZM344,480V32h16V192.00024l-14.3999,19.2A7.9984,7.9984,0,0,0,344,216a32.01143,32.01143,0,0,0,16,27.69482V376.00024l-14.3999,19.2A7.9984,7.9984,0,0,0,344,400a32.01143,32.01143,0,0,0,16,27.69482V480Zm32-32V432h72v16ZM480,112V480H464V319.99976l14.3999-19.2A7.9984,7.9984,0,0,0,480,296a32.01143,32.01143,0,0,0-16-27.69482V135.99976l14.3999-19.2A7.9984,7.9984,0,0,0,480,112a32.01143,32.01143,0,0,0-16-27.69482V32h16Z"/></g></svg>
