<?xml version="1.0" encoding="utf-8"?>
<!-- Generator: Adobe Illustrator 23.0.2, SVG Export Plug-In . SVG Version: 6.00 Build 0)  -->
<svg version="1.1" id="Слой_1" xmlns="http://www.w3.org/2000/svg" xmlns:xlink="http://www.w3.org/1999/xlink" x="0px" y="0px"
	 viewBox="0 0 24 24" style="enable-background:new 0 0 24 24;" xml:space="preserve">
<style type="text/css">
	.st0{fill:#C1C1C1;}
</style>
<path class="st0" d="M12.6,17.4c-0.9,0.9-1.8,1.6-2.6,2.5c-0.3,0.3-0.6,0.5-1.1,0.5c-0.3,0-0.4-0.1-0.6-0.4c-0.7-2-1.3-4.1-1.9-6.1
	c-0.1-0.2-0.2-0.3-0.3-0.4C4.5,13,3,12.5,1.5,12c-0.3-0.1-0.5-0.1-0.7-0.3c-0.3-0.2-0.3-0.6-0.1-0.8s0.6-0.4,0.9-0.6
	c1.9-0.8,3.8-1.4,5.7-2.2l14.4-5.6c0.9-0.3,1.6,0.2,1.5,1.2c0,0.7-0.2,1.3-0.4,1.8c-1,4.9-2.1,9.8-3.1,14.7c-0.3,1.1-1,1.5-2,0.8
	c-1.6-1.2-3.2-2.4-4.8-3.5C12.7,17.5,12.7,17.4,12.6,17.4z M9,18.9L9,18.9c0.1,0,0.1-0.1,0.1-0.1c0.1-1.1,0.2-2.2,0.3-3.4
	c0-0.3,0.1-0.4,0.3-0.6c1.5-1.3,2.9-2.6,4.4-4c1.6-1.4,3.3-2.9,4.9-4.4c0-0.1,0.1-0.3,0.2-0.3C19,6,18.9,5.9,18.7,6
	c-0.2,0.1-0.4,0.2-0.5,0.3C14.6,8.5,11,10.8,7.4,13c-0.2,0.1-0.3,0.3-0.2,0.4C7.5,14.2,7.7,15,8,15.8C8.3,16.8,8.6,17.8,9,18.9z"/>
</svg>
