<svg height="500pt" viewBox="0 -34 500 500" width="500pt" xmlns="http://www.w3.org/2000/svg"><path d="m462.488281 0h-424.976562c-20.953125 0-37.511719 17.199219-37.511719 38.15625v318.375c0 20.953125 16.558594 38.46875 37.511719 38.46875h15.488281v28.84375c.105469 4.496094 3.753906 8.101562 8.25 8.15625h97.5c4.496094-.054688 8.144531-3.660156 8.25-8.15625v-28.84375h166v28.84375c.105469 4.496094 3.753906 8.101562 8.25 8.15625h97.5c4.496094-.054688 8.144531-3.660156 8.25-8.15625v-28.84375h15.488281c20.953125 0 37.511719-17.515625 37.511719-38.46875v-318.375c0-20.957031-16.558594-38.15625-37.511719-38.15625zm-311.488281 416h-82v-21h82zm280 0h-82v-21h82zm53-59.46875c0 12.128906-9.382812 22.46875-21.511719 22.46875h-424.976562c-12.128907 0-21.511719-10.339844-21.511719-22.46875v-318.375c0-12.132812 9.382812-22.15625 21.511719-22.15625h424.976562c12.128907 0 21.511719 10.023438 21.511719 22.15625zm0 0"/><path d="m452.488281 60h-383.917969c-4.417968 0-7.570312 3.800781-7.570312 8.214844v258.257812c-.078125 2.027344.695312 3.996094 2.132812 5.425782 1.4375 1.429687 3.410157 2.191406 5.4375 2.101562h383.917969c2.019531.089844 3.984375-.675781 5.414063-2.109375 1.429687-1.429687 2.191406-3.398437 2.097656-5.417969v-258.257812c0-4.414063-3.09375-8.214844-7.511719-8.214844zm-8.488281 98h-44v-43h44zm-367 160v-242h367v23h-51.757812c-4.535157.15625-8.15625 3.835938-8.242188 8.375v58.320312c.089844 4.523438 3.71875 8.179688 8.242188 8.304688h51.757812v47h-51.757812c-4.464844-.023438-8.125 3.53125-8.242188 7.992188v58.320312c0 4.417969 3.824219 7.6875 8.242188 7.6875h51.757812v23zm367-39h-44v-42h44zm0 0"/><path d="m235.359375 141.480469c-3.121094-3.121094-8.1875-3.121094-11.3125 0l-14.289063 14.289062c-18.199218-12.976562-42.691406-12.738281-60.632812.589844l-14.171875-14.171875c-3.136719-3.046875-8.136719-3.007812-11.230469.082031-3.09375 3.089844-3.128906 8.09375-.082031 11.230469l14.289063 14.289062c-12.765626 17.894532-12.765626 41.917969 0 59.808594l-14.289063 14.292969c-3.09375 3.128906-3.078125 8.167969.03125 11.277344 3.113281 3.109375 8.152344 3.125 11.28125.035156l14.171875-14.171875c17.941406 13.328125 42.433594 13.566406 60.632812.589844l13.582032 13.582031c2.015625 2.039063 4.972656 2.84375 7.746094 2.109375 2.773437-.738281 4.941406-2.902344 5.675781-5.675781.738281-2.773438-.066407-5.730469-2.109375-7.746094l-13.464844-13.46875c13.554688-18.242187 13.554688-43.210937 0-61.457031l14.171875-14.164063c3.128906-3.125 3.128906-8.195312 0-11.320312zm-80.605469 81.320312c-13.675781-13.671875-13.894531-35.773437-.496094-49.710937 13.402344-13.941406 35.496094-14.589844 49.691407-1.460938 14.199219 13.125 15.277343 35.203125 2.429687 49.652344-1.535156.75-2.789062 1.972656-3.574218 3.492188-14.089844 11.949218-34.992188 11.09375-48.050782-1.972657zm0 0"/></svg>