<?xml version="1.0" encoding="utf-8"?>
<!-- Generator: Adobe Illustrator 23.0.2, SVG Export Plug-In . SVG Version: 6.00 Build 0)  -->
<svg version="1.1" id="Слой_1" xmlns="http://www.w3.org/2000/svg" xmlns:xlink="http://www.w3.org/1999/xlink" x="0px" y="0px"
	 viewBox="0 0 40 40" style="enable-background:new 0 0 40 40;" xml:space="preserve">
<style type="text/css">
	.st0{fill:#25D366;}
</style>
<path class="st0" d="M20.4,38.9c-3.5,0-6.6-0.8-9.5-2.4L0,40l3.5-10.5c-1.8-2.9-2.8-6.4-2.8-10.1C0.7,8.6,9.5,0,20.4,0
	C31.2,0,40,8.6,40,19.5C40,30.3,31.2,38.9,20.4,38.9z M20.4,3.1c-9,0-16.5,7.3-16.5,16.3c0,3.6,1.2,6.8,3.1,9.6l-2,6.1l6.4-2
	c2.6,1.7,5.8,2.8,9,2.8c9.2,0,16.5-7.3,16.5-16.3C36.9,10.6,29.5,3.1,20.4,3.1z M30.4,23.9c-0.1-0.2-0.5-0.4-1-0.6
	c-0.5-0.2-2.9-1.4-3.3-1.6c-0.5-0.1-0.8-0.1-1.1,0.4c-0.4,0.5-1.2,1.6-1.6,1.9c-0.2,0.4-0.6,0.4-1.1,0.1s-2-0.7-3.9-2.4
	c-1.4-1.3-2.4-2.8-2.6-3.2c-0.2-0.5,0-0.7,0.2-1c0.2-0.2,0.5-0.6,0.7-0.8c0.2-0.2,0.4-0.5,0.5-0.8c0.1-0.4,0.1-0.6,0-0.8
	c-0.1-0.2-1.1-2.6-1.4-3.5c-0.4-1-0.8-0.8-1.1-0.8h-1c-0.4,0-0.8,0.1-1.3,0.6c-0.5,0.4-1.7,1.6-1.7,3.8c0,2.4,1.7,4.6,1.9,4.9
	s3.4,5.3,8.2,7.2c4.9,1.9,4.9,1.3,5.8,1.2c0.8-0.1,2.9-1.2,3.3-2.3C30.5,25.1,30.5,24.1,30.4,23.9L30.4,23.9z"/>
</svg>
