<?xml version="1.0" encoding="utf-8"?>
<!-- Generator: Adobe Illustrator 23.0.2, SVG Export Plug-In . SVG Version: 6.00 Build 0)  -->
<svg version="1.1" id="Layer_1" xmlns="http://www.w3.org/2000/svg" xmlns:xlink="http://www.w3.org/1999/xlink" x="0px" y="0px"
	 viewBox="0 0 512 512" style="enable-background:new 0 0 512 512;" xml:space="preserve">
<title>Hand Tools</title>
<path d="M428.8,361.1l19.3,19.4c2.7,2.7,7.2,2.8,9.9,0c0.8-0.8,1.4-1.7,1.7-2.7c7.7-22.6,1.8-47.7-15.2-64.6
	c-17.3-17.2-43-22.9-66-14.6l-15.9-15.9c8.6-10.6,6.9-26.1-3.7-34.7c-2.8-2.3-6-3.9-9.5-4.7c5-12.6-1.2-27-13.8-32
	c-0.6-0.3-1.3-0.5-1.9-0.7c6.7-11.8,2.5-26.8-9.3-33.5c-3.6-2-7.6-3.1-11.7-3.2c0.7-13.6-9.7-25.2-23.3-25.9
	c-7-0.4-13.8,2.3-18.7,7.2L252.9,173l-44.1-44c11.9-32.7-4.9-68.8-37.6-80.7c-13.4-4.9-28-5.1-41.5-0.5c-3.7,1.2-5.6,5.2-4.4,8.9
	c0.3,1,0.9,2,1.7,2.7l20,20l-4.2,20.8l-21.9,3.9l-19.3-19.4c-2.7-2.7-7.2-2.8-9.9,0c-0.8,0.8-1.4,1.7-1.7,2.7
	c-7.7,22.6-1.8,47.7,15.2,64.6c17.3,17.2,43,22.9,66,14.6l3.9,3.9l-37.3,37.4c-7,7-10.9,16.6-10.9,26.5v13.2
	c0,16.3-5.7,32.2-16.1,44.8l-1.6-1.6c-7.7-7.7-20.1-7.7-27.8,0l-26.8,26.8c-7.6,7.7-7.6,20.1,0,27.7l116.4,116.4
	c7.7,7.7,20.1,7.7,27.7,0c0,0,0,0,0,0l26.8-26.8c7.6-7.7,7.6-20.1,0-27.7l-4.1-4.1l7.5-3.6c21.8-10.5,41.6-24.6,58.7-41.7l37.4-37.4
	l15.8,15.8c-8.3,23-2.6,48.7,14.6,66c11.7,11.8,27.7,18.5,44.4,18.5c6.8,0,13.6-1.1,20.1-3.3c3.7-1.2,5.6-5.2,4.4-8.9
	c-0.3-1-0.9-2-1.7-2.7l-20-20L407,365L428.8,361.1z M170.1,152c-18.6,8.4-40.4,4.5-54.9-9.9C105.1,132,99.9,118,101,103.8l12.7,12.8
	c1.6,1.6,3.9,2.4,6.2,2l30.2-5.3c2.8-0.5,5.1-2.7,5.6-5.5l5.9-29.2c0.5-2.3-0.3-4.7-1.9-6.3l-13.5-13.5c27-2,50.4,18.3,52.4,45.2
	c0.6,8.2-0.9,16.4-4.3,23.9c-1.2,2.7-0.6,5.8,1.4,7.9l47.3,47.3l-17.8,17.8l-47.3-47.3C175.9,151.3,172.7,150.8,170.1,152z
	 M215.8,425L189,451.8c-2.2,2.2-5.7,2.2-7.9,0L64.6,335.4c-2.2-2.2-2.2-5.7,0-7.9l26.8-26.8c2.2-2.2,5.7-2.2,7.9,0l116.4,116.4
	C218,419.3,218,422.9,215.8,425z M277.9,348c-16,16-34.5,29.2-54.9,38.9l-11.9,5.7l-90.2-90.3c13-15.2,20.2-34.7,20.2-54.7v-13.2
	c0-6.2,2.4-12.2,6.8-16.6l37.4-37.4l30.2,30.2l-0.8,0.8c-0.4,0.4-0.8,0.8-1.3,1.2c-9.6,8.8-24.3,10.8-36.6,5l-0.5-0.3
	c-3.5-1.6-7.7-0.1-9.3,3.4c-1.6,3.5-0.2,7.6,3.3,9.3l0.5,0.3c17.6,8.4,38.1,5.5,52-7.4c0.6-0.5,1.1-1.1,1.7-1.6l56.1-56.1
	c4.1-4.2,10.8-4.3,15.1-0.3c4.2,4.1,4.3,10.8,0.3,15.1c-0.1,0.1-0.2,0.2-0.3,0.3l-0.9,0.9l0,0l-41.9,41.9c-2.7,2.7-2.7,7.2,0,9.9
	s7.2,2.7,9.9,0l41.9-41.9c4.2-4.1,10.9-4.1,15.1,0.1c4.1,4.2,4.1,10.8,0,15l-10.7,10.7l0,0L277.9,248c-2.7,2.7-2.7,7.2,0,9.9
	c2.7,2.7,7.2,2.7,9.9,0l0,0l31.2-31.2c4.2-4.1,11-4.1,15.1,0.2c4.1,4.2,4.1,10.8,0,14.9L302.8,273c-2.7,2.7-2.7,7.2,0,9.9
	s7.2,2.7,9.9,0l20.6-20.6l2.6-2.6c4.1-4.2,10.9-4.2,15.1-0.1c4.2,4.1,4.2,10.9,0.1,15.1c0,0-0.1,0.1-0.1,0.1L277.9,348z
	 M390.2,393.1l13.5,13.5c-27,2-50.4-18.3-52.4-45.2c-0.6-8.2,0.9-16.4,4.3-23.9c1.2-2.7,0.6-5.8-1.4-7.9l-19.1-19.1l17.8-17.8
	l19.1,19.1c2.1,2.1,5.2,2.6,7.9,1.4c18.6-8.4,40.4-4.5,54.9,9.9c10.1,10.1,15.3,24.1,14.2,38.3l-12.7-12.8c-1.6-1.6-3.9-2.4-6.2-2
	l-30.2,5.3c-2.8,0.5-5.1,2.7-5.6,5.5l-5.9,29.2C387.9,389.1,388.6,391.4,390.2,393.1z"/>
</svg>
