<?xml version="1.0" standalone="no"?>
<!DOCTYPE svg PUBLIC "-//W3C//DTD SVG 20010904//EN"
 "http://www.w3.org/TR/2001/REC-SVG-20010904/DTD/svg10.dtd">
<svg version="1.0" xmlns="http://www.w3.org/2000/svg"
 width="128.000000pt" height="128.000000pt" viewBox="0 0 128.000000 128.000000"
 preserveAspectRatio="xMidYMid meet">
<metadata>
Created by potrace 1.11, written by Peter Selinger 2001-2013
</metadata>
<g transform="translate(0.000000,128.000000) scale(0.100000,-0.100000)"
fill="#000000" stroke="none">
<path d="M36 1053 c20 -32 56 -87 79 -123 123 -191 185 -287 330 -513 l158
-248 28 48 c16 26 26 55 23 63 -3 8 -64 105 -137 217 -73 112 -178 274 -234
361 l-102 157 62 5 c34 3 67 3 74 0 6 -3 103 -136 214 -295 111 -160 210 -300
219 -312 l17 -22 39 57 c22 31 75 107 117 169 l78 112 -107 141 c-58 78 -104
143 -102 146 4 3 182 7 257 5 l25 -1 -28 -29 -28 -29 33 -41 c18 -23 36 -40
40 -39 3 2 48 54 98 116 l92 112 -347 0 -346 0 24 -32 c14 -18 73 -99 132
-180 59 -81 111 -150 116 -153 9 -6 -79 -154 -92 -154 -5 -1 -86 116 -180 259
l-173 259 -208 1 -208 0 37 -57z"/>
</g>
</svg>
